<ttFont>
<head>
    <!-- Most of this table will be recalculated by the compiler -->
    <tableVersion value="1.0"/>
    <fontRevision value="4.002"/>
    <checkSumAdjustment value="0x90c624eb"/>
    <magicNumber value="0x5f0f3cf5"/>
    <flags value="00000000 00000011"/>
    <unitsPerEm value="1000"/>
    <created value="Sat Mar  2 13:15:25 2019"/>
    <modified value="Sat Mar  2 13:15:25 2019"/>
    <xMin value="-531"/>
    <yMin value="-572"/>
    <xMax value="2567"/>
    <yMax value="1065"/>
    <macStyle value="00000000 00000000"/>
    <lowestRecPPEM value="3"/>
    <fontDirectionHint value="2"/>
    <indexToLocFormat value="0"/>
    <glyphDataFormat value="0"/>
  </head>
          <CharString index="0">
            -45 callsubr
            -122 -86 -86 -143 -87 callgsubr
            hvcurveto
            -98 callsubr
            return
          </CharString>
          <CharString index="1">
            32 -24 25 -32 -32 -24 -25 -32 -31 24 -24 32 32 24 24 31 vhcurveto
            return
          </CharString>
          <CharString index="2">
            -49 -16 -52 -67 -62 -20 50 48 vhcurveto
            31 -82 -30 vlineto
            -100 55 -71 112 117 47 80 96 vhcurveto
            270 return
          </CharString>
          <CharString index="3">
            -113 -110 -171 hvcurveto
            464 -1 rmoveto
            -129 -86 -75 -100 -100 -85 76 129 129 85 73 100 100 86 -76 -127 vhcurveto
            return
          </CharString>
          <CharString index="4">
            rmoveto
            -63 callsubr
            -52 -71 561 callgsubr
            107 callgsubr
            vhcurveto
            return
          </CharString>
          <CharString index="5">
            141 108 72 146 135 -85 76 -123 -127 -81 -82 -121 -16 2 -14 2 -16 hvcurveto
            83 hlineto
            -2 15 -1 14 15 vvcurveto
            81 48 51 76 76 47 -51 -82 -105 -86 -47 -106 vhcurveto
            return
          </CharString>
          <CharString index="6">
            58 -29 -58 44 -90 hhcurveto
            -90 callsubr
            return
          </CharString>
          <CharString index="7">
            -72 callgsubr
            68 hvcurveto
            93 -81 hlineto
            -83 -39 -49 -65 vhcurveto
            return
          </CharString>
          <CharString index="8">
            rmoveto
            -97 -44 67 106 hvcurveto
            229 280 -251 vlineto
            -81 -49 -70 -90 vhcurveto
            return
          </CharString>
          <CharString index="9">
            73 vlineto
            -1 -10 -11 -1 -8 hhcurveto
            -103 -56 71 99 return
          </CharString>
          <CharString index="10">
            -142 88 -90 125 92 59 45 59 29 return
          </CharString>
          <CharString index="11">
            rmoveto
            -96 -71 63 104 324 callsubr
            hvcurveto
            -1 vlineto
            504 callsubr
            return
          </CharString>
          <CharString index="12">
            rmoveto
            -98 -86 66 561 callsubr
            36 19 29 hvcurveto
            277 -239 rlineto
            -28 -29 -41 -18 -54 hhcurveto
            return
          </CharString>
          <CharString index="13">
            75 257 rmoveto
            -181 118 -83 144 144 119 83 181 vhcurveto
            440 -91 -441 vlineto
            -128 -68 -55 -103 -103 -69 55 128 vhcurveto
            441 -91 vlineto
            return
          </CharString>
          <CharString index="14">
            -104 -47 69 108 hvcurveto
            225 299 -247 vlineto
            -84 -53 -71 -95 vhcurveto
            362 134 callgsubr
            return
          </CharString>
          <CharString index="15">
            -39 callsubr
            -86 callgsubr
            return
          </CharString>
          <CharString index="16">
            2 callgsubr
            121 74 77 120 3 0 6 -1 7 vhcurveto
            -82 callgsubr
            return
          </CharString>
          <CharString index="17">
            -58 callsubr
            -97 callsubr
            hvcurveto
            return
          </CharString>
          <CharString index="18">
            -92 callsubr
            471 callgsubr
            hvcurveto
            return
          </CharString>
          <CharString index="19">
            310 480 rmoveto
            94 80 -59 -107 -1 451 callsubr
            107 10 74 59 89 hhcurveto
            256 -311 rmoveto
            -98 hlineto
            -59 -20 -52 -42 -82 hhcurveto
            return
          </CharString>
          <CharString index="20">
            vhcurveto
            hintmask 11110001
            -132 -70 hlineto
            hintmask 11100101
            132 -670 84 hlineto
            endchar
          </CharString>
          <CharString index="21">
            -95 77 -68 107 91 78 48 61 32 vhcurveto
            -293 60 rmoveto
            53 38 39 86 vhcurveto
            169 -9 hlineto
            -113 -95 -59 -88 -68 -42 36 53 vhcurveto
            endchar
          </CharString>
          <CharString index="22">
            90 46 67 89 86 41 -77 -106 return
          </CharString>
          <CharString index="23">
            rmoveto
            85 56 55 85 86 56 -55 -85 -85 -56 -55 -86 -85 -56 55 85 vhcurveto
            return
          </CharString>
          <CharString index="24">
            64 35 -44 -54 -5 0 -6 -1 -13 hvcurveto
            64 hlineto
            1 11 0 14 8 vvcurveto
            return
          </CharString>
          <CharString index="25">
            69 hstemhm
            -27 216 -84 83 -83 84 -84 215 return
          </CharString>
          <CharString index="26">
            -110 -83 -62 -114 -74 callsubr
            hvcurveto
            77 return
          </CharString>
          <CharString index="27">
            rmoveto
            258 -376 -112 180 vvcurveto
            75 59 39 75 -2 vhcurveto
            85 -1 44 -53 6 -47 rrcurveto
            100 hlineto
            106 -11 -87 73 -133 hhcurveto
            -138 -93 -78 -115 hvcurveto
            -259 377 120 -188 vvcurveto
            -66 -52 -50 -88 -97 -41 58 58 -6 vhcurveto
            -97 hlineto
            return
          </CharString>
          <CharString index="28">
            -93 callgsubr
            endchar
          </CharString>
          <CharString index="29">
            -70 288 -121 vlineto
            -119 -63 -31 -79 vhcurveto
            -36 -156 hlineto
            return
          </CharString>
          <CharString index="30">
            -93 -78 61 111 -7 hvcurveto
            438 hlineto
            2 19 1 16 20 vvcurveto
            150 -104 112 -159 vhcurveto
            return
          </CharString>
          <CharString index="31">
            rmoveto
            -4 196 -318 -71 130 vvcurveto
            44 40 32 67 73 42 -40 -55 4 vhcurveto
            91 hlineto
            107 -6 -80 65 -121 hhcurveto
            -122 -79 -69 -84 hvcurveto
            -204 324 71 -122 vvcurveto
            -45 -40 -36 -72 -77 -47 40 53 -5 vhcurveto
            -94 hlineto
            return
          </CharString>
          <CharString index="32">
            vstem
            43 349 rmoveto
            -209 153 -146 195 151 120 75 134 52 vhcurveto
            -109 hlineto
            -83 -38 -74 -47 -102 hhcurveto
            -146 -109 106 170 171 109 106 146 102 74 -47 -84 38 537 callsubr
            135 -52 -120 76 -151 hhcurveto
            -195 -153 -148 -209 hvcurveto
            return
          </CharString>
          <CharString index="33">
            -106 73 -71 63 callsubr
            74 133 return
          </CharString>
          <CharString index="34">
            rmoveto
            -124 199 rlineto
            -84 hlineto
            122 -199 rlineto
            return
          </CharString>
          <CharString index="35">
            -139 85 rlineto
            -72 vlineto
            139 -82 138 82 rlineto
            72 vlineto
            endchar
          </CharString>
          <CharString index="36">
            55 36 -19 -27 22 hvcurveto
            1 -6 rlineto
            3 hlineto
            16 -22 7 -27 -26 vvcurveto
            -76 -51 -52 -81 -81 -57 55 76 vhcurveto
            -78 hlineto
            -121 92 -82 130 122 81 76 117 vhcurveto
            return
          </CharString>
          <CharString index="37">
            rmoveto
            -138 83 -139 -83 rlineto
            -72 vlineto
            139 85 138 -85 rlineto
            return
          </CharString>
          <CharString index="38">
            -160 -111 -109 -173 -174 115 -110 156 136 88 78 100 28 hvcurveto
            return
          </CharString>
          <CharString index="39">
            hhcurveto
            108 72 498 callgsubr
            83 670 return
          </CharString>
          <CharString index="40">
            -16 9 -18 7 -20 3 rrcurveto
            2 vlineto
            81 20 41 59 75 vvcurveto
            109 -82 69 -116 -120 -87 -71 -115 vhcurveto
            78 hlineto
            71 57 44 72 68 55 -44 -74 vhcurveto
            return
          </CharString>
          <CharString index="41">
            -50 callgsubr
            131 return
          </CharString>
          <CharString index="42">
            -52 callsubr
            70 84 return
          </CharString>
          <CharString index="43">
            rmoveto
            -80 hlineto
            -46 -13 -46 -50 -83 hhcurveto
            -96 -53 65 85 83 53 68 96 86 45 -53 -45 11 hvcurveto
            80 hlineto
            84 -14 -67 81 -139 hhcurveto
            return
          </CharString>
          <CharString index="44">
            -41 callgsubr
            53 return
          </CharString>
          <CharString index="45">
            rmoveto
            25 -18 17 -25 -25 -18 -17 -25 -25 18 -17 25 25 18 17 25 vhcurveto
            return
          </CharString>
          <CharString index="46">
            hintmask 11100100
            452 698 rmoveto
            hintmask 11110000
            -375 -698 hlineto
            hintmask 11100100
            375 75 hlineto
            hintmask 11110000
            -284 240 hlineto
            hintmask 11101000
            254 75 hlineto
            hintmask 11110000
            -254 233 hlineto
            hintmask 11100100
            284 hlineto
            return
          </CharString>
          <CharString index="47">
            106 callsubr
            -20 callgsubr
            return
          </CharString>
          <CharString index="48">
            -95 -76 -41 -66 -96 -61 62 95 110 84 55 104 vhcurveto
            return
          </CharString>
          <CharString index="49">
            -126 -90 -89 -140 return
          </CharString>
          <CharString index="50">
            139 72 70 98 128 -104 41 -101 hvcurveto
            -45 hlineto
            -56 -50 21 62 return
          </CharString>
          <CharString index="51">
            110 84 460 callsubr
            83 670 hlineto
            return
          </CharString>
          <CharString index="52">
            -89 -53 callsubr
            -107 hvcurveto
            return
          </CharString>
          <CharString index="53">
            151 callgsubr
            49 40 return
          </CharString>
          <CharString index="54">
            -66 60 102 -97 callgsubr
            -73 -47 -87 return
          </CharString>
          <CharString index="55">
            -27 callgsubr
            hstemhm
            return
          </CharString>
          <CharString index="56">
            -60 callsubr
            313 vlineto
            return
          </CharString>
          <CharString index="57">
            rmoveto
            -55 callsubr
            return
          </CharString>
          <CharString index="58">
            -300 vlineto
            -5 callgsubr
            return
          </CharString>
          <CharString index="59">
            28 32 44 16 47 hhcurveto
            2 -359 rmoveto
            -100 -84 65 561 callsubr
            37 20 29 hvcurveto
            275 -240 rlineto
            -27 354 callgsubr
            return
          </CharString>
          <CharString index="60">
            -65 callsubr
            309 80 return
          </CharString>
          <CharString index="61">
            82 182 82 -33 81 return
          </CharString>
          <CharString index="62">
            70 -18 -49 75 -106 hhcurveto
            return
          </CharString>
          <CharString index="63">
            -16 callgsubr
            1 -129 hlineto
            -91 callsubr
            return
          </CharString>
          <CharString index="64">
            rmoveto
            30 -22 23 -30 -30 -23 -23 -30 -29 23 -23 30 30 22 23 29 vhcurveto
            return
          </CharString>
          <CharString index="65">
            157 81 105 140 120 -59 81 -91 22 hvcurveto
            return
          </CharString>
          <CharString index="66">
            149 callgsubr
            -109 -63 -70 -104 -34 callsubr
            19 callsubr
            -94 vlineto
            return
          </CharString>
          <CharString index="67">
            81 265 callgsubr
            133 337 callsubr
            hintmask 1010111101100000
            244 callgsubr
            181 -225 vlineto
            -9 0 -9 1 -9 vhcurveto
            -243 hlineto
            -45 callgsubr
            415 -311 rmoveto
            -93 callsubr
            -1233 150 callsubr
            hintmask 1011011101100000
            -94 callgsubr
            hintmask 1010111011100000
            -101 callgsubr
            146 457 vlineto
            return
          </CharString>
          <CharString index="68">
            158 callgsubr
            -123 return
          </CharString>
          <CharString index="69">
            247 263 rmoveto
            -263 91 263 vlineto
            227 434 rlineto
            -101 hlineto
            -172 -353 -172 353 rlineto
            -101 hlineto
            return
          </CharString>
          <CharString index="70">
            231 callgsubr
            vhcurveto
            217 478 70 return
          </CharString>
          <CharString index="71">
            rmoveto
            -66 callsubr
            400 -206 vlineto
            46 -26 -49 35 -75 hhcurveto
            -112 153 callgsubr
            -50 -25 -49 -44 -80 hhcurveto
            endchar
          </CharString>
          <CharString index="72">
            -70 callgsubr
            375 callgsubr
            hvcurveto
            return
          </CharString>
          <CharString index="73">
            -13 2 -15 2 -13 vhcurveto
            65 callgsubr
            return
          </CharString>
          <CharString index="74">
            106 77 74 108 109 77 -74 -106 -106 -77 -75 -109 return
          </CharString>
          <CharString index="75">
            57 -32 -68 44 -111 -19 callsubr
            117 41 -71 -47 hvcurveto
            -101 vlineto
            return
          </CharString>
          <CharString index="76">
            166 70 -17 320 callgsubr
            118 148 callsubr
            hintmask 1010010111111000
            396 callgsubr
            hintmask 1010100111111000
            -12 callsubr
            hintmask 1010010111111000
            107 callgsubr
            hvcurveto
            hintmask 1011100111111000
            663 -42 12 callsubr
            -1532 -70 605 -166 -305 368 callsubr
            hintmask 1010100111111000
            102 callgsubr
            172 hlineto
            return
          </CharString>
          <CharString index="77">
            3 3 0 3 hhcurveto
            -212 -213 rlineto
            93 hlineto
            248 260 11 11 11 12 8 14 rlinecurve
            return
          </CharString>
          <CharString index="78">
            -14 callgsubr
            74 return
          </CharString>
          <CharString index="79">
            194 61 246 70 -63 515 callgsubr
            84 -84 216 hintmask 1111010110000000
            661 hmoveto
            -57 callgsubr
            hintmask 1111010101000000
            400 callgsubr
            hintmask 1111010110000000
            -216 -361 hlineto
            -132 -98 -78 -117 345 callgsubr
            hvcurveto
            hintmask 1110101110000000
            150 callgsubr
            -110 -79 -69 -116 -14 2 -18 2 -14 vhcurveto
            -24 callgsubr
            hintmask 1111010110000000
            185 callsubr
            return
          </CharString>
          <CharString index="80">
            26 -20 76 280 70 252 76 hstemhm
            60 87 -69 88 299 88 -71 90 hintmask 11101010
            194 376 rmoveto
            hintmask 11110010
            -81 -24 -53 -66 -91 vvcurveto
            -131 103 -84 152 153 104 84 131 90 -53 66 -82 25 vhcurveto
            hintmask 11101100
            71 28 45 60 78 vvcurveto
            105 -81 87 -157 -157 -80 -86 -106 vhcurveto
            hintmask 11101010
            -81 42 -56 74 -29 vhcurveto
            hintmask 11101100
            121 30 rmoveto
            -88 -61 49 75 85 60 43 89 91 59 -44 -83 -75 -61 -50 -89 hvcurveto
            hintmask 11110010
            -70 vmoveto
            95 72 -45 -93 -84 -64 -58 -103 -103 -65 57 85 96 75 42 93 hvcurveto
            endchar
          </CharString>
          <CharString index="81">
            2 0 3 2 vvcurveto
            return
          </CharString>
          <CharString index="82">
            -8 callgsubr
            80 322 vlineto
            266 callsubr
            return
          </CharString>
          <CharString index="83">
            rmoveto
            25 -20 20 -25 -25 -20 -20 -25 -24 20 -21 25 25 20 21 24 vhcurveto
            endchar
          </CharString>
          <CharString index="84">
            -201 81 559 callsubr
          </CharString>
          <CharString index="85">
            hhcurveto
            210 callgsubr
            hvcurveto
            -220 8 callsubr
          </CharString>
          <CharString index="86">
            4 callsubr
            182 136 rmoveto
            77 return
          </CharString>
          <CharString index="87">
            -106 74 -71 111 116 65 74 133 return
          </CharString>
          <CharString index="88">
            hhcurveto
            -152 -111 -78 167 callgsubr
            120 70 58 113 return
          </CharString>
          <CharString index="89">
            -16 -5 77 272 76 239 78 hstemhm
            217 170 40 88 -74 87 hintmask 11100100
            60 541 rmoveto
            89 hlineto
            70 9 51 48 85 hhcurveto
            hintmask 11111000
            87 46 -48 -69 -84 -65 -37 -121 -1 hvcurveto
            -24 -76 23 hlineto
            hintmask 11110100
            130 71 -39 -102 -74 -46 -57 -97 -96 -56 59 77 -9 hvcurveto
            -88 hlineto
            -140 11 102 -73 137 hhcurveto
            151 78 88 112 104 -57 62 -84 20 hvcurveto
            5 vlineto
            hintmask 11101000
            76 17 52 65 83 vvcurveto
            104 -77 82 -141 vhcurveto
            hintmask 11100100
            -134 -94 -72 -124 -9 hvcurveto
            endchar
          </CharString>
          <CharString index="90">
            5 callsubr
            -97 callgsubr
            190 callsubr
            hvcurveto
            return
          </CharString>
          <CharString index="91">
            rmoveto
            73 56 37 62 66 53 -44 -67 -59 -36 -37 -49 -30 vhcurveto
            -88 2 -64 48 77 vvcurveto
            return
          </CharString>
          <CharString index="92">
            rmoveto
            -103 -47 68 112 hvcurveto
            160 vlineto
            284 -242 rlineto
            -48 -11 -44 -50 -79 hhcurveto
            return
          </CharString>
          <CharString index="93">
            122 59 127 callsubr
            -273 240 rlineto
            return
          </CharString>
          <CharString index="94">
            725 -89 rmoveto
            -124 -73 87 133 -4 hvcurveto
            123 7 76 59 119 vvcurveto
            15 callsubr
            return
          </CharString>
          <CharString index="95">
            -63 callsubr
            -52 -71 561 callgsubr
            vhcurveto
            return
          </CharString>
          <CharString index="96">
            84 -76 callgsubr
          </CharString>
          <CharString index="97">
            -3 hlineto
            -107 callsubr
            return
          </CharString>
          <CharString index="98">
            -34 6 -34 12 -33 vhcurveto
            69 hlineto
            -10 33 -7 32 28 vvcurveto
            return
          </CharString>
          <CharString index="99">
            -61 callgsubr
            165 return
          </CharString>
          <CharString index="100">
            -29 -58 44 -90 62 callsubr
            return
          </CharString>
          <CharString index="101">
            -91 -61 45 77 57 37 46 64 hvcurveto
            return
          </CharString>
          <CharString index="102">
            30 -2 76 328 77 183 76 hstemhm
            73 79 -79 90 323 88 hintmask 11110100
            549 551 rmoveto
            101 -12 -70 86 -138 hhcurveto
            -183 -73 -140 -227 -219 51 -154 214 158 78 108 132 152 -91 89 -135 -86 -79 -40 -71 -31 hvcurveto
            215 -1 62 79 115 hhcurveto
            82 41 -41 -70 14 hvcurveto
            hintmask 11101100
            -136 -149 rmoveto
            104 53 -65 -102 -98 -59 -63 -94 -114 -56 75 96 108 83 49 83 hvcurveto
            endchar
          </CharString>
          <CharString index="103">
            hintmask 00101100
            184 hmoveto
            94 hlineto
            hintmask 00110100
            132 435 132 -435 rlineto
            94 hlineto
            171 548 rlineto
            -90 hlineto
            hintmask 10001100
            -124 -461 -133 461 rlineto
            -93 hlineto
            hintmask 01001100
            -136 -460 -126 460 rlineto
            -93 hlineto
            return
          </CharString>
          <CharString index="104">
            hlineto
            -92 callsubr
            return
          </CharString>
          <CharString index="105">
            131 70 hlineto
            return
          </CharString>
          <CharString index="106">
            -52 callgsubr
            231 callgsubr
            hvcurveto
            217 478 70 -1048 -49 callgsubr
            return
          </CharString>
          <CharString index="107">
            32 callgsubr
            vhcurveto
            -80 hlineto
            60 callsubr
            return
          </CharString>
          <CharString index="108">
            -7 callgsubr
            vhcurveto
            return
          </CharString>
          <CharString index="109">
            82 84 callgsubr
            return
          </CharString>
          <CharString index="110">
            402 452 callgsubr
            280 337 callsubr
            hintmask 11011110
            528 -36 callgsubr
            299 -247 hlineto
            hintmask 10111110
            -84 -53 -71 -95 -104 -47 69 108 vhcurveto
            hintmask 11011110
            -213 -182 -15 callsubr
            130 182 rmoveto
            -3 0 -4 -2 vvcurveto
            -280 234 rlineto
            280 hlineto
            596 hmoveto
            70 -1068 -40 callgsubr
            436 callsubr
            88 return
          </CharString>
          <CharString index="111">
            200 callsubr
            -38 -49 -66 vhcurveto
            return
          </CharString>
          <CharString index="112">
            rmoveto
            -106 callsubr
            467 callsubr
            return
          </CharString>
          <CharString index="113">
            -88 callgsubr
            95 return
          </CharString>
          <CharString index="114">
            -97 64 -52 65 -15 vhcurveto
            -3 vlineto
            return
          </CharString>
          <CharString index="115">
            83 -76 callgsubr
          </CharString>
          <CharString index="116">
            120 0 70 235 84 234 74 hstemhm
            96 91 -91 283 210 93 hintmask 11110100
            313 697 rmoveto
            -217 -308 -87 -84 87 -305 217 hlineto
            228 141 131 216 216 -141 134 -228 hvcurveto
            -126 -627 rmoveto
            235 vlineto
            hintmask 11101100
            192 84 hlineto
            hintmask 11110100
            -192 234 126 hlineto
            181 95 -106 -170 -170 -95 -107 -181 hvcurveto
            endchar
          </CharString>
          <CharString index="117">
            830 -60 callgsubr
            -857 -70 288 -121 vlineto
            -119 -63 -31 -79 vhcurveto
            -36 -156 hlineto
            -155 99 -91 151 113 75 65 80 37 vhcurveto
            -4 17 301 callgsubr
            266 callgsubr
            hvcurveto
            162 callsubr
            -66 callsubr
            vlineto
            return
          </CharString>
          <CharString index="118">
            181 callgsubr
            -91 callsubr
            146 return
          </CharString>
          <CharString index="119">
            -99 callsubr
            703 134 callgsubr
            return
          </CharString>
          <CharString index="120">
            58 -7 callsubr
            return
          </CharString>
          <CharString index="121">
            23 -2 77 336 78 155 80 hstem
            88 84 310 87 vstem
            88 724 rmoveto
            -408 86 vlineto
            57 24 53 38 73 hhcurveto
            105 53 -60 -103 -99 -49 -74 -110 -85 -59 45 76 -17 hvcurveto
            -89 hlineto
            -117 18 87 -81 144 hhcurveto
            169 78 112 140 112 -56 127 -176 -71 -64 -32 -41 -30 hvcurveto
            228 351 80 vlineto
            endchar
          </CharString>
          <CharString index="122">
            83 201 -300 vlineto
            463 callsubr
            return
          </CharString>
          <CharString index="123">
            rmoveto
            -196 399 callsubr
            -209 -209 154 -146 196 189 137 139 173 16 hvcurveto
            70 vlineto
            return
          </CharString>
          <CharString index="124">
            130 vvcurveto
            83 202 -49 callsubr
            return
          </CharString>
          <CharString index="125">
            70 callsubr
            131 77 78 return
          </CharString>
          <CharString index="126">
            66 38 39 54 64 28 -51 -78 vhcurveto
            -94 return
          </CharString>
          <CharString index="127">
            26 callsubr
            150 callgsubr
            hvcurveto
            return
          </CharString>
          <CharString index="128">
            -104 -55 55 74 -1 hvcurveto
            -82 hlineto
            return
          </CharString>
          <CharString index="129">
            127 93 61 117 vhcurveto
            101 return
          </CharString>
          <CharString index="130">
            35 callgsubr
            endchar
          </CharString>
          <CharString index="131">
            555 rmoveto
            -86 -1 -54 -44 -27 -57 rrcurveto
            217 473 -82 vlineto
            -100 -48 -46 -82 -12 vhcurveto
            -22 71 -57 56 -97 -2 rrcurveto
            -401 -387 45 callgsubr
            return
          </CharString>
          <CharString index="132">
            hintmask 1101001010000000
            189 -36 callgsubr
            hintmask 1101000110000000
            -2 callsubr
            hintmask 1101010010000000
            -132 hlineto
            return
          </CharString>
          <CharString index="133">
            14 17 0 20 hhcurveto
            148 107 62 139 return
          </CharString>
          <CharString index="134">
            2 callsubr
            83 return
          </CharString>
          <CharString index="135">
            322 vlineto
            79 43 86 106 83 65 -61 -96 -101 -63 -58 -81 -15 -16 1 3 -11 477 callsubr
            17 23 -2 21 hhcurveto
            119 90 84 146 134 -86 93 -122 -89 -56 -45 -58 -28 hvcurveto
            214 478 70 -952 -70 394 -214 vlineto
            58 -29 -57 45 -92 62 callsubr
            hvcurveto
            return
          </CharString>
          <CharString index="136">
            -94 -38 43 77 hvcurveto
            102 369 -123 vlineto
            -74 -12 -64 -49 -106 vvcurveto
            return
          </CharString>
          <CharString index="137">
            -87 -44 -90 -47 -113 vvcurveto
            -95 69 -69 105 82 44 47 29 13 vhcurveto
            return
          </CharString>
          <CharString index="138">
            vvcurveto
            71 callsubr
            141 70 return
          </CharString>
          <CharString index="139">
            hstemhm
            77 91 -91 345 -345 375 return
          </CharString>
          <CharString index="140">
            rmoveto
            -183 216 183 hlineto
            return
          </CharString>
          <CharString index="141">
            -3 hlineto
            78 -31 -67 60 -106 hhcurveto
            -125 -98 -90 -139 -134 97 -91 127 104 74 61 79 25 hvcurveto
            return
          </CharString>
          <CharString index="142">
            366 callsubr
            380 282 rmoveto
            64 callsubr
            return
          </CharString>
          <CharString index="143">
            70 hstemhm
            70 84 262 71 return
          </CharString>
          <CharString index="144">
            59 callgsubr
            81 callsubr
            return
          </CharString>
          <CharString index="145">
            -520 -95 callsubr
            return
          </CharString>
          <CharString index="146">
            42 31 callsubr
            return
          </CharString>
          <CharString index="147">
            357 callgsubr
            hintmask 1001011110010000
            -77 hlineto
            hintmask 0100111110010000
            -59 callsubr
            hintmask 0010111111000000
            113 callsubr
          </CharString>
          <CharString index="148">
            435 callsubr
            179 callsubr
            hvcurveto
            230 callgsubr
            return
          </CharString>
          <CharString index="149">
            rmoveto
            -252 hlineto
            126 352 rlineto
            endchar
          </CharString>
          <CharString index="150">
            vlineto
            -45 callgsubr
            417 91 rmoveto
            70 return
          </CharString>
          <CharString index="151">
            61 -32 -64 44 -94 hhcurveto
            return
          </CharString>
          <CharString index="152">
            hintmask 11010000
            492 697 rmoveto
            -442 -79 334 hlineto
            hintmask 11100000
            -338 -546 rlineto
            -72 448 79 -340 vlineto
            hintmask 11010000
            338 546 rlineto
            return
          </CharString>
          <CharString index="153">
            309 251 callsubr
            -1039 213 callsubr
            83 65 -61 -96 vhcurveto
            return
          </CharString>
          <CharString index="154">
            hhcurveto
            113 callgsubr
          </CharString>
          <CharString index="155">
            62 -64 callsubr
            return
          </CharString>
          <CharString index="156">
            -110 -72 hlineto
            -147 -119 -77 -157 -144 92 -83 128 hvcurveto
            return
          </CharString>
          <CharString index="157">
            -119 -91 -70 -124 -117 88 -75 115 110 84 return
          </CharString>
          <CharString index="158">
            376 callgsubr
            5 callgsubr
            return
          </CharString>
          <CharString index="159">
            84 262 413 callgsubr
            66 84 return
          </CharString>
          <CharString index="160">
            70 54 callgsubr
            return
          </CharString>
          <CharString index="161">
            -183 105 69 235 68 193 70 hstemhm
            -27 620 -510 84 -68 84 339 71 hintmask 11110000
            593 -60 callgsubr
            -620 -70 vlineto
            hintmask 11100110
            126 -77 hlineto
            -97 53 -42 63 -11 vhcurveto
            -2 vlineto
            hintmask 11101010
            185 callgsubr
            95 -62 146 return
          </CharString>
          <CharString index="162">
            179 callgsubr
            183 498 callsubr
            endchar
          </CharString>
          <CharString index="163">
            309 268 -99 callsubr
            607 134 callgsubr
            -943 213 callsubr
            vhcurveto
            return
          </CharString>
          <CharString index="164">
            640 393 rmoveto
            29 -23 23 -29 -29 -23 -23 -29 -28 23 -23 29 29 23 23 28 vhcurveto
            return
          </CharString>
          <CharString index="165">
            79 41 84 102 2 vhcurveto
            85 2 41 -57 7 -57 rrcurveto
            -151 95 -112 169 105 callsubr
            vhcurveto
            -219 83 vlineto
            return
          </CharString>
          <CharString index="166">
            371 -1 107 -106 108 -88 -21 22 -21 561 136 0 -20 return
          </CharString>
          <CharString index="167">
            -110 -75 -78 -112 216 callgsubr
            105 return
          </CharString>
          <CharString index="168">
            -10 80 -49 -21 251 74 153 79 return
          </CharString>
          <CharString index="169">
            hhcurveto
            -58 callsubr
            return
          </CharString>
          <CharString index="170">
            111 117 65 return
          </CharString>
          <CharString index="171">
            -198 216 360 -69 hlineto
            -112 -65 -35 -97 vhcurveto
            return
          </CharString>
          <CharString index="172">
            85 96 callgsubr
            return
          </CharString>
          <CharString index="173">
            71 224 -52 callsubr
            85 80 296 83 309 80 297 85 hintmask 1001101101100000
            853 -36 callgsubr
            -213 vlineto
            106 callgsubr
            -96 -75 -52 -87 -31 hvcurveto
            -309 250 rlineto
            768 -670 rmoveto
            322 vlineto
            return
          </CharString>
          <CharString index="174">
            361 91 callgsubr
            70 83 143 82 146 82 return
          </CharString>
          <CharString index="175">
            844 -60 callgsubr
            -871 51 callgsubr
            return
          </CharString>
          <CharString index="176">
            -74 32 80 62 45 44 91 hvcurveto
            54 68 -57 hlineto
            return
          </CharString>
          <CharString index="177">
            -68 -36 -40 -68 -84 vvcurveto
            -124 82 -97 149 return
          </CharString>
          <CharString index="178">
            60 51 21 56 vhcurveto
            183 178 return
          </CharString>
          <CharString index="179">
            -52 -38 -36 -69 -10 hvcurveto
            endchar
          </CharString>
          <CharString index="180">
            214 callsubr
            112 75 65 79 37 vhcurveto
            -3 17 18 -2 19 hhcurveto
            return
          </CharString>
          <CharString index="181">
            -90 -12 -42 -67 -16 -64 rrcurveto
            return
          </CharString>
          <CharString index="182">
            388 -145 rmoveto
            -95 -71 63 104 102 74 63 92 119 51 -87 -79 hvcurveto
            -1 vlineto
            -75 -51 -90 -119 vhcurveto
            endchar
          </CharString>
          <CharString index="183">
            223 -130 -51 18 -132 hhcurveto
            -41 -68 42 hlineto
            97 34 -14 -159 101 hvcurveto
            return
          </CharString>
          <CharString index="184">
            -170 113 -115 return
          </CharString>
          <CharString index="185">
            hhcurveto
            10 11 1 1 13 hvcurveto
            -98 callsubr
            -85 callsubr
            hvcurveto
            return
          </CharString>
          <CharString index="186">
            600 670 270 callsubr
            return
          </CharString>
          <CharString index="187">
            -91 -92 -36 -108 -100 82 -41 87 -2 hvcurveto
            53 hlineto
            return
          </CharString>
          <CharString index="188">
            146 295 callsubr
            hlineto
            return
          </CharString>
          <CharString index="189">
            73 199 callsubr
            return
          </CharString>
          <CharString index="190">
            670 131 70 return
          </CharString>
          <CharString index="191">
            201 callsubr
            90 return
          </CharString>
          <CharString index="192">
            471 callgsubr
            vhcurveto
            221 callgsubr
          </CharString>
          <CharString index="193">
            534 callgsubr
            363 -271 79 return
          </CharString>
          <CharString index="194">
            994 rmoveto
            -68 hlineto
            -56 -43 -59 -92 -92 -43 59 56 vhcurveto
            -69 hlineto
            -95 67 -81 137 136 67 81 95 vhcurveto
            return
          </CharString>
          <CharString index="195">
            -29 -10 -35 -42 vvcurveto
            160 callgsubr
            return
          </CharString>
          <CharString index="196">
            hlineto
            -14 -24 -8 -30 -32 vvcurveto
            7 callsubr
            return
          </CharString>
          <CharString index="197">
            -116 -23 vlineto
            -170 -119 -91 -169 return
          </CharString>
          <CharString index="198">
            147 103 70 135 vhcurveto
            95 172 hlineto
            return
          </CharString>
          <CharString index="199">
            hstemhm
            -27 148 callgsubr
            return
          </CharString>
          <CharString index="200">
            95 callgsubr
            -9 -20 return
          </CharString>
          <CharString index="201">
            122 76 78 127 hvcurveto
            return
          </CharString>
          <CharString index="202">
            135 -147 rlineto
            87 hlineto
            return
          </CharString>
          <CharString index="203">
            -106 -63 66 98 hvcurveto
            return
          </CharString>
          <CharString index="204">
            37 callsubr
            endchar
          </CharString>
          <CharString index="205">
            310 117 callsubr
            return
          </CharString>
          <CharString index="206">
            hintmask 1010110001000000
            142 callsubr
            hintmask 1100110001000000
            -42 248 callgsubr
            return
          </CharString>
          <CharString index="207">
            rmoveto
            -77 -61 51 91 87 63 50 75 95 39 -74 -65 -65 -40 -75 -94 hvcurveto
            return
          </CharString>
          <CharString index="208">
            60 19 103 44 147 callgsubr
            216 81 -20 79 10 104 return
          </CharString>
          <CharString index="209">
            83 callgsubr
            865 411 rmoveto
            91 vlineto
            return
          </CharString>
          <CharString index="210">
            -70 440 callgsubr
            72 54 callgsubr
            return
          </CharString>
          <CharString index="211">
            35 -8 79 -50 440 callsubr
            return
          </CharString>
          <CharString index="212">
            172 callgsubr
            60 36 return
          </CharString>
          <CharString index="213">
            -70 112 -229 vlineto
            return
          </CharString>
          <CharString index="214">
            rmoveto
            -403 -227 vlineto
            600 400 rmoveto
            72 -431 vlineto
            -395 -698 rlineto
            99 hlineto
            87 155 rlineto
            267 -155 373 72 -282 245 252 70 -252 239 hlineto
            endchar
          </CharString>
          <CharString index="215">
            215 0 87 -87 88 -67 -21 435 113 0 -20 return
          </CharString>
          <CharString index="216">
            541 callgsubr
            127 5 70 return
          </CharString>
          <CharString index="217">
            vlineto
            -88 callgsubr
            return
          </CharString>
          <CharString index="218">
            72 -72 253 return
          </CharString>
          <CharString index="219">
            76 254 67 return
          </CharString>
          <CharString index="220">
            148 182 hlineto
            endchar
          </CharString>
          <CharString index="221">
            rmoveto
            -104 -50 62 88 hvcurveto
            3 vlineto
            101 3 62 38 78 vvcurveto
            103 -90 34 -115 vhcurveto
            -352 125 710 -331 hlineto
            -121 -59 -82 -103 vhcurveto
            244 -136 242 callgsubr
            return
          </CharString>
          <CharString index="222">
            152 330 rmoveto
            102 75 63 94 116 51 -87 -79 -76 -51 -90 -116 -97 -72 63 104 vhcurveto
            return
          </CharString>
          <CharString index="223">
            791 14 rmoveto
            -126 -74 81 110 hvcurveto
            -26 callsubr
            127 5 71 59 130 vvcurveto
            return
          </CharString>
          <CharString index="224">
            -103 callsubr
            209 callgsubr
            return
          </CharString>
          <CharString index="225">
            -134 -74 -81 -93 -12 hvcurveto
            79 hlineto
            return
          </CharString>
          <CharString index="226">
            -1 13 11 -1 10 hhcurveto
            return
          </CharString>
          <CharString index="227">
            hhcurveto
            41 hlineto
            -70 callgsubr
            return
          </CharString>
          <CharString index="228">
            rmoveto
            -129 -85 -76 -101 -99 -87 75 129 127 87 76 99 101 85 -73 -129 vhcurveto
            endchar
          </CharString>
          <CharString index="229">
            133 -87 92 -121 522 callsubr
          </CharString>
          <CharString index="230">
            353 callgsubr
            -80 35 -60 57 -34 hvcurveto
            return
          </CharString>
          <CharString index="231">
            -70 126 -77 vlineto
            -97 53 -42 63 -11 vhcurveto
            -2 vlineto
            return
          </CharString>
          <CharString index="232">
            -123 vlineto
            -127 -16 -99 -91 -141 vvcurveto
            return
          </CharString>
          <CharString index="233">
            118 64 58 93 92 61 -57 -112 vhcurveto
            return
          </CharString>
          <CharString index="234">
            -93 -87 -35 -10 -38 -21 -31 hvcurveto
            return
          </CharString>
          <CharString index="235">
            -154 -122 -91 -175 return
          </CharString>
          <CharString index="236">
            75 240 75 233 75 return
          </CharString>
          <CharString index="237">
            48 254 callgsubr
            return
          </CharString>
          <CharString index="238">
            -86 49 -23 vlineto
            -36 -14 -18 531 callgsubr
            78 26 -3 31 -9 35 hvcurveto
            endchar
          </CharString>
          <CharString index="239">
            90 323 hlineto
            157 -97 78 -127 -74 -66 -31 -57 -36 vhcurveto
            return
          </CharString>
          <CharString index="240">
            144 callsubr
            vhcurveto
            -196 vlineto
            return
          </CharString>
          <CharString index="241">
            339 -310 vlineto
            -110 -88 -76 -110 vhcurveto
            413 496 rmoveto
            70 -764 124 callsubr
            hintmask 11111010
            -69 -12 -63 -53 -88 vvcurveto
            return
          </CharString>
          <CharString index="242">
            54 -33 -55 32 -69 hhcurveto
            -87 439 callgsubr
            -234 -288 45 callgsubr
            return
          </CharString>
          <CharString index="243">
            419 callgsubr
            -107 -79 -66 -113 -18 hvcurveto
            return
          </CharString>
          <CharString index="244">
            548 callgsubr
            119 62 59 110 96 28 -40 -29 10 hvcurveto
            return
          </CharString>
          <CharString index="245">
            235 68 193 70 hstemhm
            83 84 -68 84 339 84 hintmask 11110110
            324 174 rmoveto
            hintmask 11111010
            178 callsubr
            hintmask 11110110
            -98 -38 return
          </CharString>
          <CharString index="246">
            444 19 rmoveto
            -124 -75 69 109 hvcurveto
            8 vlineto
            127 6 70 63 131 vvcurveto
            102 201 -300 vlineto
            463 callsubr
            return
          </CharString>
          <CharString index="247">
            rmoveto
            -240 hlineto
            -45 callgsubr
            91 358 -99 vlineto
            -115 -66 -38 -113 vhcurveto
            264 -247 rmoveto
            -126 -73 72 113 hvcurveto
            -26 callsubr
            return
          </CharString>
          <CharString index="248">
            264 callsubr
            rlineto
            -47 -11 -48 -50 -82 hhcurveto
            return
          </CharString>
          <CharString index="249">
            -107 720 rmoveto
            62 vlineto
            70 22 74 86 85 21 -74 -70 vhcurveto
            return
          </CharString>
          <CharString index="250">
            356 callsubr
            75 82 -58 82 211 79 return
          </CharString>
          <CharString index="251">
            -146 108 -93 135 95 65 46 59 31 return
          </CharString>
          <CharString index="252">
            354 callsubr
            83 83 95 84 return
          </CharString>
          <CharString index="253">
            -46 callsubr
            154 82 return
          </CharString>
          <CharString index="254">
            56 155 rlineto
            304 hlineto
            return
          </CharString>
          <CharString index="255">
            83 280 441 callgsubr
            return
          </CharString>
          <CharString index="256">
            78 -57 83 184 78 return
          </CharString>
          <CharString index="257">
            267 callsubr
            vlineto
            return
          </CharString>
          <CharString index="258">
            13 70 97 461 -361 69 -55 65 -65 347 -252 62 120 126 callgsubr
            216 68 129 81 201 85 return
          </CharString>
          <CharString index="259">
            94 callgsubr
            280 83 return
          </CharString>
          <CharString index="260">
            62 callgsubr
            -96 return
          </CharString>
          <CharString index="261">
            19 callsubr
            -600 405 callsubr
            70 113 372 callsubr
            return
          </CharString>
          <CharString index="262">
            -21 98 70 -66 68 27 261 callgsubr
            return
          </CharString>
          <CharString index="263">
            -106 -49 70 110 hvcurveto
            160 vlineto
            299 -242 rlineto
            -57 -19 -49 -41 -76 hhcurveto
            return
          </CharString>
          <CharString index="264">
            266 callsubr
            83 return
          </CharString>
          <CharString index="265">
            95 65 46 59 31 hvcurveto
            -196 vlineto
            -176 153 rmoveto
            -100 -84 65 561 callsubr
            37 20 29 hvcurveto
            275 -240 rlineto
            -27 354 callgsubr
            return
          </CharString>
          <CharString index="266">
            rmoveto
            -127 109 callsubr
            59 367 callsubr
          </CharString>
          <CharString index="267">
            -70 411 273 callgsubr
            hvcurveto
            return
          </CharString>
          <CharString index="268">
            -87 33 77 -52 103 hhcurveto
            92 64 43 62 32 hvcurveto
            -201 return
          </CharString>
          <CharString index="269">
            -51 -25 -49 -46 -82 hhcurveto
            return
          </CharString>
          <CharString index="270">
            80 -50 -21 478 79 return
          </CharString>
          <CharString index="271">
            -239 517 callsubr
            69 vstem
            536 -60 callgsubr
            -563 -40 callgsubr
            -148 77 -100 152 return
          </CharString>
          <CharString index="272">
            -122 23 91 -60 133 hhcurveto
            30 67 -21 hlineto
            -121 -66 66 113 120 81 58 123 hvcurveto
            147 -426 280 callgsubr
          </CharString>
          <CharString index="273">
            -59 21 -21 643 78 hstem
            33 474 vstem
            33 721 rmoveto
            -78 386 vlineto
            -282 -643 rlineto
            92 hlineto
            278 652 rlineto
            69 vlineto
            endchar
          </CharString>
          <CharString index="274">
            74 64 78 38 vhcurveto
            434 callsubr
            return
          </CharString>
          <CharString index="275">
            70 276 callgsubr
            return
          </CharString>
          <CharString index="276">
            63.5 -60 60 return
          </CharString>
          <CharString index="277">
            76 186 callsubr
            return
          </CharString>
          <CharString index="278">
            -29 -58 44 -90 hhcurveto
            return
          </CharString>
          <CharString index="279">
            hintmask 11010000
            168 298 rmoveto
            127 66 39 87 vhcurveto
            hintmask 11001000
            24 94 hlineto
            hintmask 11010000
            -87 -59 -38 -61 -31 hvcurveto
            hintmask 10110000
            89 -91 -548 91 vlineto
            return
          </CharString>
          <CharString index="280">
            126 -49 88 -123 -109 -63 -70 -102 -13 2 -15 2 -13 vhcurveto
            81 hlineto
            -2 14 -1 11 12 vvcurveto
            65 37 39 54 67 28 -50 -79 vhcurveto
            return
          </CharString>
          <CharString index="281">
            -63 callgsubr
            endchar
          </CharString>
          <CharString index="282">
            5 callgsubr
            -100 -62 -60 -82 -15 -17 2 3 -13 vhcurveto
            -65 vlineto
            -5 17 25 -3 22 hhcurveto
            120 89 85 147 return
          </CharString>
          <CharString index="283">
            472 callgsubr
            vlineto
            -98 callgsubr
            80 return
          </CharString>
          <CharString index="284">
            70 89 -48 callgsubr
            -360 360 -271 74 -74 271 return
          </CharString>
          <CharString index="285">
            -89 -68 40 82 63 43 50 103 hvcurveto
            53 68 -47 hlineto
            return
          </CharString>
          <CharString index="286">
            82 65 -61 -96 -101 -63 -58 -81 -14 -16 1 3 -12 return
          </CharString>
          <CharString index="287">
            -118 69 -84 123 121 71 84 118 vhcurveto
            return
          </CharString>
          <CharString index="288">
            219 347 callgsubr
            return
          </CharString>
          <CharString index="289">
            -207 vlineto
            58 -33 -65 48 -96 hhcurveto
            return
          </CharString>
          <CharString index="290">
            -117 -131 hlineto
            -94 -68 -42 -85 return
          </CharString>
          <CharString index="291">
            -8 72 -64 211 -190 -21 return
          </CharString>
          <CharString index="292">
            -99 hlineto
            -2 -18 -1 -17 -18 vvcurveto
            return
          </CharString>
          <CharString index="293">
            254 401 callsubr
            return
          </CharString>
          <CharString index="294">
            382 577 rmoveto
            return
          </CharString>
          <CharString index="295">
            -61 -9 -61 -51 -88 vvcurveto
            -116 91 -60 114 121 93 73 119 22 vhcurveto
            -5 19 21 -2 22 hhcurveto
            71 59 30 45 29 hvcurveto
            return
          </CharString>
          <CharString index="296">
            463 callsubr
            -1350 -70 851 -69 vlineto
            -102 -66 -35 -113 vhcurveto
            -264 -130 hlineto
            return
          </CharString>
          <CharString index="297">
            -73 -47 -87 -107 return
          </CharString>
          <CharString index="298">
            562 -60 callgsubr
            -589 -70 386 -96 vlineto
            291 callsubr
            -200 292 callsubr
            return
          </CharString>
          <CharString index="299">
            72 -67 73 -70 211 -190 -21 136 64 120 71 -54 62 81 64 124 72 -70 70 -70 79 hstemhm
            83 83 95 84 return
          </CharString>
          <CharString index="300">
            119 hlineto
            -319 348 316 349 rlineto
            -115 hlineto
            -288 -323 rlineto
            323 -91 -697 91 318 vlineto
            endchar
          </CharString>
          <CharString index="301">
            39 hlineto
            71 27 30 82 vhcurveto
            76 vlineto
            -140 -60 -55 -122 hvcurveto
            -39 return
          </CharString>
          <CharString index="302">
            121 -63 68 -83 15 vhcurveto
            124 vlineto
            return
          </CharString>
          <CharString index="303">
            74 127 36 callsubr
            return
          </CharString>
          <CharString index="304">
            17 vlineto
            119 5 78 62 130 vvcurveto
            return
          </CharString>
          <CharString index="305">
            115 110 84 70 115 58 -23 return
          </CharString>
          <CharString index="306">
            -66 85 37 153 -9 64 return
          </CharString>
          <CharString index="307">
            hvcurveto
            92 -81 hlineto
            -83 return
          </CharString>
          <CharString index="308">
            108 43 75 return
          </CharString>
          <CharString index="309">
            -11 23 -7 23 26 vvcurveto
            71 41 40 63 60 33 -41 -52 2 vhcurveto
            59 hlineto
            87 2 -55 61 -92 hhcurveto
            -98 -47 -66 -71 -4 hvcurveto
            return
          </CharString>
          <CharString index="310">
            381 callsubr
            487 callsubr
            hvcurveto
            return
          </CharString>
          <CharString index="311">
            -60 -18 -57 -41 -87 hhcurveto
            -85 -88 58 117 -10 hvcurveto
            451 hlineto
            3 19 1 16 19 vvcurveto
            145 -101 115 -156 vhcurveto
            return
          </CharString>
          <CharString index="312">
            hhcurveto
            220 callsubr
          </CharString>
          <CharString index="313">
            71 -270 79 182 411 callsubr
            -9 -20 return
          </CharString>
          <CharString index="314">
            -144 92 -83 128 296 callsubr
            vhcurveto
            return
          </CharString>
          <CharString index="315">
            324 callsubr
            vhcurveto
            -1 vlineto
            return
          </CharString>
          <CharString index="316">
            -4 17 19 -2 20 hhcurveto
            return
          </CharString>
          <CharString index="317">
            70 -7 80 624 -20 return
          </CharString>
          <CharString index="318">
            -2 callsubr
            hintmask 1100110101001100
            -131 77 hlineto
            67 33 40 54 52 31 -35 -49 -1 vhcurveto
            68 hlineto
            89 7 -54 61 -87 hhcurveto
            return
          </CharString>
          <CharString index="319">
            49 12 45 53 85 hhcurveto
            100 51 -71 -79 -83 -51 -71 -100 -83 -50 52 50 -9 hvcurveto
            -79 hlineto
            -92 8 80 -82 132 hhcurveto
            return
          </CharString>
          <CharString index="320">
            -51 callsubr
            245 callgsubr
            return
          </CharString>
          <CharString index="321">
            -119 -63 -31 -79 vhcurveto
            -36 -156 hlineto
            77 callgsubr
            return
          </CharString>
          <CharString index="322">
            -70 297 callsubr
            return
          </CharString>
          <CharString index="323">
            72 111 70 hstemhm
            34 105 -22 84 309 81 297 84 hintmask 0011011011100000
            591 475 callsubr
            78 43 87 106 return
          </CharString>
          <CharString index="324">
            7 23 4 24 25 vvcurveto
            105 -61 64 -85 -81 -38 -54 -51 -13 vhcurveto
            -2 hlineto
            51 -13 -36 54 -77 hhcurveto
            -88 -64 -62 -107 return
          </CharString>
          <CharString index="325">
            -96 callsubr
            187 callsubr
            return
          </CharString>
          <CharString index="326">
            rmoveto
            -75 -1 -55 47 77 vvcurveto
            70 47 46 69 5 vhcurveto
            67 6 50 26 27 40 rrcurveto
            -190 vlineto
            -57 -42 -69 -88 vhcurveto
            return
          </CharString>
          <CharString index="327">
            93 64 44 61 33 hvcurveto
            -23 callsubr
          </CharString>
          <CharString index="328">
            -216 -740 hlineto
            endchar
          </CharString>
          <CharString index="329">
            78 210 78 return
          </CharString>
          <CharString index="330">
            867 -60 callgsubr
            -894 -70 679 407 callgsubr
            return
          </CharString>
          <CharString index="331">
            327 150 rmoveto
            -100 -86 64 113 514 callgsubr
            -27 -29 -40 -18 -52 hhcurveto
            return
          </CharString>
          <CharString index="332">
            84 callsubr
            84 43 -64 -84 3 vhcurveto
            -137 4 87 -86 122 hhcurveto
            242 callsubr
            -202 return
          </CharString>
          <CharString index="333">
            461 callsubr
            -142 91 -82 128 hvcurveto
            -164 -159 rlineto
            92 hlineto
            return
          </CharString>
          <CharString index="334">
            -386 470 227 hstem
            32 160 vstem
            96 470 rmoveto
            96 227 rlineto
            -101 hlineto
            -59 -227 rlineto
            endchar
          </CharString>
          <CharString index="335">
            -77 -14 -62 -55 -96 vvcurveto
            -130 108 -73 161 -14 vhcurveto
            return
          </CharString>
          <CharString index="336">
            vlineto
            6 callsubr
            return
          </CharString>
          <CharString index="337">
            -215 -361 hlineto
            -132 -99 -78 -116 return
          </CharString>
          <CharString index="338">
            72 47 60 36 vhcurveto
            -219 83 -57 callgsubr
            return
          </CharString>
          <CharString index="339">
            208 205 9 9 8 10 7 10 rlinecurve
            return
          </CharString>
          <CharString index="340">
            252 27 callgsubr
            return
          </CharString>
          <CharString index="341">
            41 65 67 49 40 69 200 callsubr
            return
          </CharString>
          <CharString index="342">
            -92 0 129 callsubr
            return
          </CharString>
          <CharString index="343">
            236 351 callgsubr
            return
          </CharString>
          <CharString index="344">
            306 82 115 82 201 83 return
          </CharString>
          <CharString index="345">
            -359 246 callgsubr
            return
          </CharString>
          <CharString index="346">
            hstem
            77 398 callgsubr
            return
          </CharString>
          <CharString index="347">
            326 callsubr
            81 return
          </CharString>
          <CharString index="348">
            35 -9 411 callsubr
            return
          </CharString>
          <CharString index="349">
            92 59 45 59 29 hvcurveto
            return
          </CharString>
          <CharString index="350">
            -59 -9 -63 -48 -88 vvcurveto
            return
          </CharString>
          <CharString index="351">
            -77 248 -178 63 return
          </CharString>
          <CharString index="352">
            21 358 callgsubr
            return
          </CharString>
          <CharString index="353">
            -166 -328 vlineto
            return
          </CharString>
          <CharString index="354">
            -76 -113 vhcurveto
            return
          </CharString>
          <CharString index="355">
            -70 386 -89 vlineto
            hintmask 1010111010000000
            291 callsubr
            -207 292 callsubr
            return
          </CharString>
          <CharString index="356">
            108 42 75 86 81 38 -60 -89 2 vhcurveto
            -113 4 67 -76 120 hhcurveto
            121 74 83 118 hvcurveto
            return
          </CharString>
          <CharString index="357">
            -107 -21 -73 -66 -111 hhcurveto
            -141 -68 538 callgsubr
            hvcurveto
            26 callsubr
            return
          </CharString>
          <CharString index="358">
            268 12 callsubr
            return
          </CharString>
          <CharString index="359">
            -218 83 282 callgsubr
            return
          </CharString>
          <CharString index="360">
            -216 -95 vlineto
            return
          </CharString>
          <CharString index="361">
            -49 rmoveto
            -82 vlineto
            hintmask 11111011
            47 -18 hlineto
            hintmask 11111101
            171 callgsubr
            hintmask 11111011
            65 36 35 80 25 return
          </CharString>
          <CharString index="362">
            81 29 41 61 54 33 -39 -59 -2 vhcurveto
            74 hlineto
            100 3 -59 69 -105 hhcurveto
            -118 -48 -83 -110 hvcurveto
            return
          </CharString>
          <CharString index="363">
            69 42 40 62 60 33 -41 -52 2 vhcurveto
            59 hlineto
            90 2 -57 58 -90 hhcurveto
            -106 -45 -75 -75 hvcurveto
            -1 vlineto
            return
          </CharString>
          <CharString index="364">
            -139 vlineto
            16 -26 -32 8 -35 hhcurveto
            -83 -51 -41 -56 319 callsubr
            return
          </CharString>
          <CharString index="365">
            rmoveto
            -68 -41 53 77 hvcurveto
            15 vlineto
            121 -79 89 -121 -88 -53 -44 -59 -26 vhcurveto
            214 860 vlineto
            return
          </CharString>
          <CharString index="366">
            -285 21 -21 640 83 hstem
            134 92 vstem
            134 hmoveto
            92 723 -188 -83 96 hlineto
            endchar
          </CharString>
          <CharString index="367">
            -64 0 79 539 79 hstemhm
            46 448 -444 442 return
          </CharString>
          <CharString index="368">
            73 -66 85 37 275 callsubr
            return
          </CharString>
          <CharString index="369">
            -120 -67 -40 -112 vhcurveto
            -16 hlineto
            -13 -1 -14 -12 vvcurveto
            return
          </CharString>
          <CharString index="370">
            -47 callsubr
            284 return
          </CharString>
          <CharString index="371">
            479 callgsubr
            -244 return
          </CharString>
          <CharString index="372">
            94 73 -51 -95 -76 -49 -58 -84 -74 -67 45 87 -9 hvcurveto
            return
          </CharString>
          <CharString index="373">
            79 37 86 106 return
          </CharString>
          <CharString index="374">
            -70 374 -91 return
          </CharString>
          <CharString index="375">
            -106 736 rmoveto
            227 -132 -51 18 -132 hhcurveto
            -41 -68 42 hlineto
            98 34 -14 -163 103 hvcurveto
            return
          </CharString>
          <CharString index="376">
            50 callsubr
            69 114 372 callsubr
            return
          </CharString>
          <CharString index="377">
            rmoveto
            70 -627 -70 408 30 callgsubr
            return
          </CharString>
          <CharString index="378">
            -60 26 58 -37 81 hhcurveto
            115 64 74 133 hvcurveto
            77 182 498 callsubr
            endchar
          </CharString>
          <CharString index="379">
            hstemhm
            70 65 callsubr
            return
          </CharString>
          <CharString index="380">
            -94 -68 -42 -85 -61 37 -40 47 -20 hvcurveto
            return
          </CharString>
          <CharString index="381">
            -67 hlineto
            -56 -20 19 54 hvcurveto
            323 vlineto
            return
          </CharString>
          <CharString index="382">
            153 -9 64 110 84 -84 214 return
          </CharString>
          <CharString index="383">
            -202 80 322 vlineto
            return
          </CharString>
          <CharString index="384">
            74 360 80 -77 77 return
          </CharString>
          <CharString index="385">
            hmoveto
            131 callgsubr
            return
          </CharString>
          <CharString index="386">
            -192 357 callgsubr
            return
          </CharString>
          <CharString index="387">
            2 hlineto
            hintmask 1000011011100000
            -155 -150 rlineto
            91 hlineto
            200 197 18 15 14 19 10 20 rlinecurve
            return
          </CharString>
          <CharString index="388">
            74 71 216 491 callsubr
            80 517 82 146 82 return
          </CharString>
          <CharString index="389">
            157 callsubr
            59 -60 -94 vhcurveto
            -13 vlineto
            -106 66 -83 124 121 74 83 118 vhcurveto
            return
          </CharString>
          <CharString index="390">
            217 -217 405 -260 72 368 71 116 70 hstemhm
            70 163 callgsubr
            return
          </CharString>
          <CharString index="391">
            -60 112 -52 443 callgsubr
            56 112 54 81 return
          </CharString>
          <CharString index="392">
            vstem
            -89 callgsubr
            return
          </CharString>
          <CharString index="393">
            -70 363 274 callgsubr
            return
          </CharString>
          <CharString index="394">
            118 62 74 92 131 -104 40 -102 hvcurveto
            -44 hlineto
            return
          </CharString>
          <CharString index="395">
            -84 69 callsubr
            return
          </CharString>
          <CharString index="396">
            -47 28 48 -28 72 hhcurveto
            122 68 83 118 hvcurveto
            return
          </CharString>
          <CharString index="397">
            rmoveto
            -126 -73 75 116 hvcurveto
            return
          </CharString>
          <CharString index="398">
            -111 -57 -56 -114 vhcurveto
            -105 return
          </CharString>
          <CharString index="399">
            hlineto
            -125 65 -91 133 vhcurveto
            return
          </CharString>
          <CharString index="400">
            70 hstemhm
            296 callgsubr
            return
          </CharString>
          <CharString index="401">
            -14 2 -18 2 -14 return
          </CharString>
          <CharString index="402">
            -426 84 670 return
          </CharString>
          <CharString index="403">
            71 60 30 47 28 return
          </CharString>
          <CharString index="404">
            70 hstemhm
            85 83 return
          </CharString>
          <CharString index="405">
            120 72 79 123 hvcurveto
            14 -80 -16 vlineto
            -76 -43 -52 -71 -78 -36 58 81 vhcurveto
            143 return
          </CharString>
          <CharString index="406">
            232 197 rmoveto
            -62 -44 42 64 65 48 41 68 hvcurveto
            95 -79 hlineto
            -83 -38 -50 -67 vhcurveto
            return
          </CharString>
          <CharString index="407">
            -9 77 -77 80 -71 309 -66 66 -66 305 -70 79 -77 77 hstemhm
            43 93 371 93 return
          </CharString>
          <CharString index="408">
            139 260 rmoveto
            74 439 callsubr
            -50 -72 -73 -53 -50 -73 -76 -52 50 71 vhcurveto
            return
          </CharString>
          <CharString index="409">
            109 42 -79 -70 -85 -56 -61 -88 -89 -67 64 85 hvcurveto
            -80 hlineto
            -132 100 -92 140 return
          </CharString>
          <CharString index="410">
            81 -105 157 10 11 1 1 13 vhcurveto
            -98 callsubr
            return
          </CharString>
          <CharString index="411">
            -218 641 68 hstem
            17 352 vstem
            17 641 99 callgsubr
          </CharString>
          <CharString index="412">
            271 269 rlineto
            -269 81 -76 callgsubr
          </CharString>
          <CharString index="413">
            21 -21 96 67 return
          </CharString>
          <CharString index="414">
            rmoveto
            86 hlineto
            78 51 47 82 81 52 -50 -80 -121 -97 -22 -114 vhcurveto
            hintmask 11100110
            -29 return
          </CharString>
          <CharString index="415">
            72 111 70 hstemhm
            70 128 callgsubr
            hintmask 11011111
            543 475 callsubr
            return
          </CharString>
          <CharString index="416">
            73 -49 -21 96 67 -27 412 callsubr
            81 64 -49 68 107 70 hstemhm
            83 83 95 84 return
          </CharString>
          <CharString index="417">
            553 callgsubr
            hstem
            427 callgsubr
            vstem
            return
          </CharString>
          <CharString index="418">
            95 callsubr
            -147 158 rlineto
            166 31 106 110 165 vvcurveto
            return
          </CharString>
          <CharString index="419">
            70 -61 61 -61 429 callgsubr
            82 callsubr
            return
          </CharString>
          <CharString index="420">
            558 -158 rmoveto
            -124 -70 68 117 -2 hvcurveto
            135 6 45 72 129 vvcurveto
            return
          </CharString>
          <CharString index="421">
            -50 callsubr
            endchar
          </CharString>
          <CharString index="422">
            -127 -89 238 callgsubr
            return
          </CharString>
          <CharString index="423">
            74 127 70 -70 79 hstemhm
            70 84 262 71 return
          </CharString>
          <CharString index="424">
            72 -72 152 callsubr
            return
          </CharString>
          <CharString index="425">
            197 callgsubr
            132 return
          </CharString>
          <CharString index="426">
            -26 hvcurveto
            -234 -290 45 callgsubr
            return
          </CharString>
          <CharString index="427">
            -70 878 -213 vlineto
            106 callgsubr
            return
          </CharString>
          <CharString index="428">
            -100 74 -68 111 112 68 78 129 hvcurveto
            return
          </CharString>
          <CharString index="429">
            hhcurveto
            106 389 callgsubr
            return
          </CharString>
          <CharString index="430">
            65 136 62 81 65 125 70 return
          </CharString>
          <CharString index="431">
            502 callsubr
            52 -87 -79 return
          </CharString>
          <CharString index="432">
            59 112 138 80 return
          </CharString>
          <CharString index="433">
            505 callsubr
            222 return
          </CharString>
          <CharString index="434">
            -21 98 70 -66 69 return
          </CharString>
          <CharString index="435">
            -121 -114 vlineto
            return
          </CharString>
          <CharString index="436">
            622 rmoveto
            28 24 23 29 29 -24 24 -28 -65 callgsubr
            return
          </CharString>
          <CharString index="437">
            328 callgsubr
            72 82 -78 84 38 97 64 85 253 84 -43 82 -76 76 return
          </CharString>
          <CharString index="438">
            72 310 72 -72 263 -70 70 hstemhm
            70 81 306 83 134 82 90 82 return
          </CharString>
          <CharString index="439">
            112 -229 hlineto
            -20 callgsubr
            return
          </CharString>
          <CharString index="440">
            172 366 callsubr
            return
          </CharString>
          <CharString index="441">
            -66 43 76 -39 104 hhcurveto
            107 72 46 60 558 callgsubr
          </CharString>
          <CharString index="442">
            rmoveto
            -77 -62 51 91 87 64 464 callgsubr
          </CharString>
          <CharString index="443">
            441 callsubr
            740 -20 239 callsubr
            740 -91 hlineto
            endchar
          </CharString>
          <CharString index="444">
            83 299 83 return
          </CharString>
          <CharString index="445">
            rmoveto
            122 59 return
          </CharString>
          <CharString index="446">
            -48 callgsubr
            -314 72 -29 74 -74 271 -70 70 hstemhm
            70 84 return
          </CharString>
          <CharString index="447">
            -69 -39 -41 -73 -88 vvcurveto
            -131 82 -103 149 131 77 77 85 14 vhcurveto
            return
          </CharString>
          <CharString index="448">
            -70 530 callsubr
            212 vlineto
            757 -670 rmoveto
            322 vlineto
            return
          </CharString>
          <CharString index="449">
            112 79 62 97 84 64 -46 -62 27 vhcurveto
            -374 -352 rlineto
            -4 107 vlineto
            return
          </CharString>
          <CharString index="450">
            56 rmoveto
            -63 callgsubr
            return
          </CharString>
          <CharString index="451">
            rmoveto
            73 hlineto
            32 4 18 19 32 hhcurveto
            29 23 -20 -37 -42 -29 -31 -39 -32 hvcurveto
            return
          </CharString>
          <CharString index="452">
            rmoveto
            3 0 6 -1 7 vhcurveto
            -82 callgsubr
            return
          </CharString>
          <CharString index="453">
            404 callgsubr
            vlineto
            endchar
          </CharString>
          <CharString index="454">
            421 rmoveto
            -309 249 rlineto
            309 hlineto
            return
          </CharString>
          <CharString index="455">
            374 callgsubr
            -83 return
          </CharString>
          <CharString index="456">
            -171 -271 -165 vlineto
            return
          </CharString>
          <CharString index="457">
            vlineto
            -3 -17 -2 -19 -19 vvcurveto
            return
          </CharString>
          <CharString index="458">
            399 callgsubr
            171 70 return
          </CharString>
          <CharString index="459">
            52 -52 350 -295 72 return
          </CharString>
          <CharString index="460">
            412 callgsubr
            83 return
          </CharString>
          <CharString index="461">
            64 126 70 hstemhm
            return
          </CharString>
          <CharString index="462">
            hlineto
            -2 5 -1 8 return
          </CharString>
          <CharString index="463">
            506 callsubr
            hstemhm
            return
          </CharString>
          <CharString index="464">
            82 217 82 return
          </CharString>
          <CharString index="465">
            458 callsubr
            70 84 309 80 return
          </CharString>
          <CharString index="466">
            rmoveto
            34 27 27 35 35 -27 27 -34 -34 -27 -27 -35 -35 27 -27 34 hvcurveto
            return
          </CharString>
          <CharString index="467">
            rmoveto
            69 hlineto
            26 6 20 18 36 hhcurveto
            37 23 -21 -31 -33 -26 -17 -37 hvcurveto
            return
          </CharString>
          <CharString index="468">
            rmoveto
            74 323 callgsubr
            -51 -73 -76 -52 51 71 vhcurveto
            return
          </CharString>
          <CharString index="469">
            117 69 216 130 callgsubr
            176 337 callsubr
            return
          </CharString>
          <CharString index="470">
            434 -110 -80 hlineto
            -146 -99 -64 -132 -81 46 -58 61 -28 hvcurveto
            return
          </CharString>
          <CharString index="471">
            67 332 64 159 356 callsubr
            75 79 -55 82 211 79 return
          </CharString>
          <CharString index="472">
            -64 -29 -42 -62 -81 vvcurveto
            -114 80 -80 116 80 55 35 51 29 vhcurveto
            return
          </CharString>
          <CharString index="473">
            rmoveto
            -61 -45 40 66 52 callgsubr
            return
          </CharString>
          <CharString index="474">
            17 callsubr
            endchar
          </CharString>
          <CharString index="475">
            vlineto
            -39 callsubr
            hvcurveto
            return
          </CharString>
          <CharString index="476">
            -55 277 -201 -21 31 69 return
          </CharString>
          <CharString index="477">
            35 21 -21 479 79 -10 -20 return
          </CharString>
          <CharString index="478">
            -23 -22 -3 -6 -20 hvcurveto
            return
          </CharString>
          <CharString index="479">
            59 478 callgsubr
            hvcurveto
            return
          </CharString>
          <CharString index="480">
            84 52 76 272 83 return
          </CharString>
          <CharString index="481">
            165 -84 -167 vlineto
            return
          </CharString>
          <CharString index="482">
            82 336 81 return
          </CharString>
          <CharString index="483">
            110 70 hstemhm
            return
          </CharString>
          <CharString index="484">
            79 125 hvcurveto
            return
          </CharString>
          <CharString index="485">
            -165 106 -83 154 vhcurveto
            548 callgsubr
            return
          </CharString>
          <CharString index="486">
            -52 -27 -37 -56 -73 vvcurveto
            -107 75 -75 111 67 54 29 50 29 vhcurveto
            return
          </CharString>
          <CharString index="487">
            -80 -58 51 83 83 56 53 105 45 40 6 11 34 hvcurveto
            -150 vlineto
            return
          </CharString>
          <CharString index="488">
            -69 callgsubr
            -4 vlineto
            return
          </CharString>
          <CharString index="489">
            151 callgsubr
            48 40 70 4 callsubr
            return
          </CharString>
          <CharString index="490">
            -143 80 -83 137 90 56 42 63 31 vhcurveto
            -177 vlineto
            endchar
          </CharString>
          <CharString index="491">
            -69 hlineto
            -84 -52 -71 -95 -105 -47 69 108 vhcurveto
            225 vlineto
            endchar
          </CharString>
          <CharString index="492">
            -13 callgsubr
            vhcurveto
            return
          </CharString>
          <CharString index="493">
            21 -21 101 413 callsubr
            216 70 return
          </CharString>
          <CharString index="494">
            169 callgsubr
            hstem
            43 93 return
          </CharString>
          <CharString index="495">
            167 -6 79 553 80 hstem
            43 93 return
          </CharString>
          <CharString index="496">
            59 100 70 -70 79 hstemhm
            70 71 363 return
          </CharString>
          <CharString index="497">
            -41 -6 -27 -24 -34 -57 -36 66 -76 hhcurveto
            return
          </CharString>
          <CharString index="498">
            hvcurveto
            -238 hlineto
            -45 callgsubr
            return
          </CharString>
          <CharString index="499">
            77 396 75 hstemhm
            97 91 -91 234 return
          </CharString>
          <CharString index="500">
            100 hhcurveto
            147 113 115 170 return
          </CharString>
          <CharString index="501">
            -58 callgsubr
            70 return
          </CharString>
          <CharString index="502">
            hstemhm
            43 93 -93 94 return
          </CharString>
          <CharString index="503">
            -172 -150 vlineto
            return
          </CharString>
          <CharString index="504">
            vvcurveto
            -73 62 -27 60 return
          </CharString>
          <CharString index="505">
            -75 -248 79 hlineto
            return
          </CharString>
          <CharString index="506">
            -154 -147 return
          </CharString>
          <CharString index="507">
            58 124 hvcurveto
            return
          </CharString>
          <CharString index="508">
            67 141 83 return
          </CharString>
          <CharString index="509">
            21 -21 69 73 return
          </CharString>
          <CharString index="510">
            112 callgsubr
            hintmask 0010010111101000
            201 callsubr
            89 84 41 -64 -81 return
          </CharString>
          <CharString index="511">
            72 111 297 callsubr
            36 112 132 441 callgsubr
            return
          </CharString>
          <CharString index="512">
            vlineto
            50 callsubr
            return
          </CharString>
          <CharString index="513">
            538 callgsubr
            vhcurveto
            26 callsubr
            return
          </CharString>
          <CharString index="514">
            80 vstem
            446 callgsubr
            return
          </CharString>
          <CharString index="515">
            72 111 70 hstemhm
            70 84 325 callsubr
            297 85 return
          </CharString>
          <CharString index="516">
            -214 -501 hlineto
            -245 132 rlineto
            80 62 39 56 84 vvcurveto
            return
          </CharString>
          <CharString index="517">
            493 callsubr
            91 -81 hlineto
            -83 return
          </CharString>
          <CharString index="518">
            80 407 79 return
          </CharString>
          <CharString index="519">
            64 137 62 return
          </CharString>
          <CharString index="520">
            71 213 69 return
          </CharString>
          <CharString index="521">
            360 rmoveto
            70 return
          </CharString>
          <CharString index="522">
            16 -81 438 callsubr
            -73 -78 -37 59 81 vhcurveto
            146 return
          </CharString>
          <CharString index="523">
            433 -369 67 57 71 104 70 hstemhm
            72 83 343 78 return
          </CharString>
          <CharString index="524">
            72 111 70 hstemhm
            29 105 11 84 279 84 300 85 return
          </CharString>
          <CharString index="525">
            -142 88 -90 125 93 59 45 60 29 vhcurveto
            -203 vlineto
            return
          </CharString>
          <CharString index="526">
            -70 172 -229 vlineto
            -144 69 -96 136 vhcurveto
            2 hlineto
            return
          </CharString>
          <CharString index="527">
            -8 callgsubr
            vlineto
            return
          </CharString>
          <CharString index="528">
            263 callsubr
            83 return
          </CharString>
          <CharString index="529">
            70 -61 527 callgsubr
            return
          </CharString>
          <CharString index="530">
            36 20 29 hvcurveto
            276 -240 rlineto
            return
          </CharString>
          <CharString index="531">
            -91 -58 -45 -60 -28 vhcurveto
            216 vlineto
            return
          </CharString>
          <CharString index="532">
            -232 21 -21 464 94 -10 -20 return
          </CharString>
          <CharString index="533">
            309 168 rmoveto
            442 callgsubr
            return
          </CharString>
          <CharString index="534">
            rmoveto
            -88 -53 -43 -57 -26 hvcurveto
            215 return
          </CharString>
          <CharString index="535">
            98 21 524 callgsubr
            return
          </CharString>
          <CharString index="536">
            197 71 402 70 hstem
            85 83 return
          </CharString>
          <CharString index="537">
            vlineto
            499 callgsubr
            return
          </CharString>
          <CharString index="538">
            83 95 472 callsubr
            return
          </CharString>
          <CharString index="539">
            -295 199 80 318 return
          </CharString>
          <CharString index="540">
            70 hstem
            130 callsubr
            return
          </CharString>
          <CharString index="541">
            -2 12 13 -1 13 hhcurveto
            return
          </CharString>
          <CharString index="542">
            78 1 42 87 107 hhcurveto
            return
          </CharString>
          <CharString index="543">
            -152 72 -101 144 return
          </CharString>
          <CharString index="544">
            35 80 25 -3 28 return
          </CharString>
          <CharString index="545">
            -12 vlineto
            -77 -43 -52 return
          </CharString>
          <CharString index="546">
            53 50 75 73 53 return
          </CharString>
          <CharString index="547">
            -21 548 -20 return
          </CharString>
          <CharString index="548">
            -359 21 -21 return
          </CharString>
          <CharString index="549">
            67 41 72 244 72 -71 71 -70 70 172 70 hstemhm
            return
          </CharString>
          <CharString index="550">
            43 276 510 callgsubr
            return
          </CharString>
          <CharString index="551">
            119 5 78 44 callgsubr
            return
          </CharString>
          <CharString index="552">
            576 hmoveto
            371 167 vlineto
            37 33 8 15 26 hvcurveto
            return
          </CharString>
          <CharString index="553">
            58 -58 65 252 70 hstemhm
            83 79 185 82 -69 74 return
          </CharString>
          <CharString index="554">
            71 70 -24 -85 -56 -40 -48 -82 -93 -53 55 74 -7 hvcurveto
            return
          </CharString>
          <CharString index="555" raw="1">
            fb390783 0a0b  
          </CharString>
          <CharString index="556">
            -103 92 740 -92 -290 vlineto
            63 -38 -79 44 -86 hhcurveto
            return
          </CharString>
          <CharString index="557">
            84 -77 84 239 81 -73 85 112 84 -84 216 return
          </CharString>
          <CharString index="558">
            hvcurveto
            -346 hlineto
            return
          </CharString>
          <CharString index="559">
            83 -83 215 return
          </CharString>
          <CharString index="560">
            92 -73 76 -121 -118 -71 -77 -92 -85 55 -60 return
          </CharString>
          <CharString index="561">
            385 callsubr
            -201 81 return
          </CharString>
          <CharString index="562">
            rmoveto
            -47 callgsubr
            return
          </CharString>
          <CharString index="563">
            35 274 -201 69 280 68 145 70 hstemhm
            return
          </CharString>
          <CharString index="564">
            rmoveto
            -41 callgsubr
            52 -52 -71 -72 -52 -51 -73 return
          </CharString>
          <CharString index="565">
            111 callsubr
            -245 68 -68 245 -70 70 hstemhm
            return
          </CharString>
          <CharString index="566">
            -212 -301 -206 528 callgsubr
            return
          </CharString>
          <CharString index="567">
            69 115 471 callgsubr
            hvcurveto
            195 -434 return
          </CharString>
          <CharString index="568">
            435 -110 -72 hlineto
            -147 -119 -77 -157 return
          </CharString>
          <CharString index="569">
            90 callgsubr
            110 return
          </CharString>
          <CharString index="570">
            -5 callgsubr
            -62 callgsubr
            return
          </CharString>
          <CharString index="571">
            -1 rlineto
            15 vlineto
            175 -152 return
          </CharString>
          <CharString index="572">
            126 5 70 412 callgsubr
            return
          </CharString>
          <CharString index="573">
            vlineto
            -28 callgsubr
            return
          </CharString>
          <CharString index="574">
            -16 208 rmoveto
            442 callgsubr
            return
          </CharString>
          <CharString index="575">
            -166 179 rlineto
            -112 hlineto
            return
          </CharString>
          <CharString index="576">
            rmoveto
            74 439 callsubr
            -51 return
          </CharString>
          <CharString index="577">
            401 callgsubr
            hlineto
            endchar
          </CharString>
          <CharString index="578">
            -55 -42 -57 -87 vhcurveto
            return
          </CharString>
          <CharString index="579">
            84 53 75 283 return
          </CharString>
          <CharString index="580">
            -260 59 87 56 return
          </CharString>
          <CharString index="581">
            -20 hstemhm
            77 91 -91 return
          </CharString>
          <CharString index="582">
            hmoveto
            322 vlineto
            return
          </CharString>
          <CharString index="583">
            21 -21 91 59 return
          </CharString>
          <CharString index="584">
            vhcurveto
            -66 vlineto
            -5 return
          </CharString>
          <CharString index="585">
            -20 hstemhm
            7 161 -91 91 hintmask 11010000
            77 hmoveto
            91 return
          </CharString>
          <CharString index="586">
            517 callgsubr
            vlineto
            return
          </CharString>
          <CharString index="587">
            -63 callsubr
            -51 -72 561 callgsubr
            return
          </CharString>
          <CharString index="588">
            3 21 545 callsubr
            return
          </CharString>
          <CharString index="589">
            149 callsubr
            164 83 -83 216 return
          </CharString>
          <CharString index="590">
            71 95 callgsubr
            183 -20 hstemhm
            return
          </CharString>
          <CharString index="591">
            -164 540 callsubr
            return
          </CharString>
          <CharString index="592">
            -1 13 hhcurveto
            76 49 36 47 26 hvcurveto
            -219 vlineto
            return
          </CharString>
          <CharString index="593">
            -136 hvcurveto
            -6 vlineto
            83 -1 rlineto
            9 vlineto
            174 return
          </CharString>
          <CharString index="594">
            -131 3 -70 -91 -127 hhcurveto
            -81 -74 32 80 return
          </CharString>
          <CharString index="595">
            -77 -9 2 -11 1 -9 vhcurveto
            58 hlineto
            -2 5 -1 return
          </CharString>
          <CharString index="596">
            502 rmoveto
            -213 vlineto
            106 callgsubr
            return
          </CharString>
          <CharString index="597">
            vstem
            157 741 rmoveto
            -741 82 741 vlineto
            return
          </CharString>
          <CharString index="598">
            91 callgsubr
            85 return
          </CharString>
          <CharString index="599">
            201 -49 callsubr
            return
          </CharString>
          <CharString index="600">
            544 callgsubr
            69 hvcurveto
            return
          </CharString>
          <CharString index="601">
            -165 108 -121 166 -2 vhcurveto
            endchar
          </CharString>
          <CharString index="602">
            123 -61 84 -94 19 vhcurveto
            128 vlineto
            endchar
          </CharString>
          <CharString index="603">
            rmoveto
            559 callgsubr
          </CharString>
          <CharString index="604">
            -127 -89 -77 -127 return
          </CharString>
          <CharString index="605">
            -385 402 callgsubr
            return
          </CharString>
          <CharString index="606">
            40 -28 -56 35 -103 hhcurveto
            return
          </CharString>
          <CharString index="607">
            558 78 hstemhm
            61 93 return
          </CharString>
          <CharString index="608">
            71 161 62 -62 69 return
          </CharString>
          <CharString index="609">
            102 74 63 93 117 return
          </CharString>
          <CharString index="610">
            -139 -51 -96 -122 return
          </CharString>
          <CharString index="611">
            -75 -52 267 callgsubr
            return
          </CharString>
          <CharString index="612">
            70 hstemhm
            75 84 return
          </CharString>
          <CharString index="613">
            61 117 70 return
          </CharString>
          <CharString index="614">
            70 -63 72 hstemhm
            76 78 -57 82 186 76 return
          </CharString>
          <CharString index="615">
            hlineto
            -92 -64 -39 -79 -60 39 -40 49 -20 hvcurveto
            return
          </CharString>
          <CharString index="616">
            hstemhm
            -27 212 -82 82 300 81 -74 82 return
          </CharString>
          <CharString index="617">
            -77 -42 -53 -70 vhcurveto
            599 466 rmoveto
            70 return
          </CharString>
          <CharString index="618">
            -47 hlineto
            -53 -45 20 53 57 45 17 48 hvcurveto
            return
          </CharString>
          <CharString index="619">
            21 -21 80 70 -38 72 212 70 -69 69 return
          </CharString>
          <CharString index="620">
            38 35 23 55 70 vvcurveto
            416 105 rmoveto
            70 return
          </CharString>
          <CharString index="621">
            70 554 callgsubr
            return
          </CharString>
          <CharString index="622">
            82 146 79 91 78 82 81 153 82 return
          </CharString>
          <CharString index="623">
            140 109 72 146 135 -84 76 return
          </CharString>
          <CharString index="624">
            429 callsubr
            299 return
          </CharString>
          <CharString index="625">
            268 rmoveto
            -104 -47 69 108 hvcurveto
            225 return
          </CharString>
          <CharString index="626">
            -109 -88 rlineto
            -52 257 59 -176 vlineto
            return
          </CharString>
          <CharString index="627">
            -142 81 -102 157 10 11 0 1 13 return
          </CharString>
          <CharString index="628">
            -172 -148 vlineto
            -94 -77 -25 -53 -49 hvcurveto
            return
          </CharString>
          <CharString index="629">
            424 callsubr
            endchar
          </CharString>
          <CharString index="630">
            hlineto
            39 40 20 57 70 vvcurveto
            89 vlineto
            endchar
          </CharString>
          <CharString index="631">
            -143 105 -96 147 103 return
          </CharString>
          <CharString index="632">
            69 497 callgsubr
            return
          </CharString>
          <CharString index="633">
            -40 -33 -82 -108 -53 48 return
          </CharString>
          <CharString index="634">
            65 35 437 callsubr
            return
          </CharString>
          <CharString index="635">
            120 81 58 124 vhcurveto
            return
          </CharString>
          <CharString index="636">
            97 51 -61 -96 hvcurveto
            84 hlineto
            return
          </CharString>
          <CharString index="637">
            hhcurveto
            501 callgsubr
            return
          </CharString>
          <CharString index="638">
            -30 14 49 -63 108 hhcurveto
            return
          </CharString>
          <CharString index="639">
            rmoveto
            -110 55 -40 97 vhcurveto
            return
          </CharString>
          <CharString index="640">
            73 -49 -21 136 return
          </CharString>
          <CharString index="641">
            153 299 rmoveto
            return
          </CharString>
          <CharString index="642">
            -88 -53 -44 -57 -26 return
          </CharString>
          <CharString index="643">
            579 rmoveto
            91 return
          </CharString>
          <CharString index="644">
            hvcurveto
            109 hlineto
            return
          </CharString>
          <CharString index="645">
            84 351 84 return
          </CharString>
          <CharString index="646">
            -21 697 -20 return
          </CharString>
          <CharString index="647">
            vlineto
            -61 callgsubr
            return
          </CharString>
          <CharString index="648">
            589 193 hstem
            17 213 vstem
            17 return
          </CharString>
          <CharString index="649">
            -65 -57 28 75 60 40 47 74 hvcurveto
            28 return
          </CharString>
          <CharString index="650">
            -95 -77 -41 -65 -96 -62 62 95 110 return
          </CharString>
          <CharString index="651">
            90 65 50 107 107 66 -50 -90 -89 -66 return
          </CharString>
          <CharString index="652">
            -21 285 73 264 75 hstemhm
            77 91 return
          </CharString>
          <CharString index="653">
            -212 -443 hlineto
            -243 116 rlineto
            return
          </CharString>
          <CharString index="654">
            rmoveto
            -79 -65 40 82 63 43 50 103 hvcurveto
            return
          </CharString>
          <CharString index="655">
            39 151 66 -65 65 125 70 hstemhm
            return
          </CharString>
          <CharString index="656">
            -247 622 -562 65 270 73 return
          </CharString>
          <CharString index="657">
            -20 hstemhm
            -16 184 -91 91 -91 184 return
          </CharString>
          <CharString index="658">
            -103 60 -74 115 6 10 0 1 8 return
          </CharString>
          <CharString index="659">
            84 309 80 284 375 callsubr
            return
          </CharString>
          <CharString index="660">
            -70 70 -70 79 hstemhm
            70 84 309 80 return
          </CharString>
          <CharString index="661">
            -73 75 116 hvcurveto
            -26 callsubr
            return
          </CharString>
          <CharString index="662">
            -300 466 callsubr
            return
          </CharString>
          <CharString index="663">
            82 -63 76 230 83 -53 77 -73 73 return
          </CharString>
          <CharString index="664">
            21 callgsubr
            127 return
          </CharString>
          <CharString index="665">
            64 11 47 58 83 vvcurveto
            104 vlineto
            endchar
          </CharString>
          <CharString index="666">
            120 callgsubr
            vlineto
            endchar
          </CharString>
          <CharString index="667">
            -91 -90 -36 -105 return
          </CharString>
          <CharString index="668">
            112 42 12 return
          </CharString>
          <CharString index="669">
            -21 117 71 return
          </CharString>
          <CharString index="670">
            -229 vlineto
            endchar
          </CharString>
        <CharString name=".notdef">
          -105 0 50 600 50 hstem
          0 50 400 50 vstem
          0 vmoveto
          500 700 -500 hlineto
          250 -305 rmoveto
          -170 255 rlineto
          340 hlineto
          -140 -300 rmoveto
          170 255 rlineto
          -510 vlineto
          -370 -45 rmoveto
          170 255 170 -255 rlineto
          -370 555 rmoveto
          170 -255 -170 -255 rlineto
          endchar
        </CharString>
        <CharString name="A">
          243 callgsubr
          hstemhm
          33 608 hintmask 10100000
          -39 callgsubr
          hintmask 01100000
          147 callsubr
          -26 74 42 callsubr
        </CharString>
        <CharString name="AE">
          519 callgsubr
          hstem
          465 91 vstem
          465 629 107 callsubr
        </CharString>
        <CharString name="Aacute">
          243 callgsubr
          hstemhm
          222 213 hintmask 10100000
          -39 callgsubr
          hintmask 01100000
          147 callsubr
          -267 647 -77 callgsubr
          28 -698 42 callsubr
        </CharString>
        <CharString name="Abreve">
          243 callgsubr
          518 71 hstemhm
          195 476 callgsubr
          hintmask 10111000
          -39 callgsubr
          hintmask 01111000
          147 callsubr
          -9 722 -85 callgsubr
          -17 -648 42 callsubr
        </CharString>
        <CharString name="Acircumflex">
          243 callgsubr
          hstemhm
          199 277 hintmask 10100000
          -39 callgsubr
          hintmask 01100000
          147 callsubr
          -13 659 -70 callsubr
          -13 -513 42 callsubr
        </CharString>
        <CharString name="Adieresis">
          243 callgsubr
          538 105 hstemhm
          204 105 58 105 hintmask 10011000
          -39 callgsubr
          hintmask 01111000
          147 callsubr
          -232 612 -99 callgsubr
          44 -538 42 callsubr
        </CharString>
        <CharString name="Agrave">
          243 callgsubr
          hstemhm
          222 213 hintmask 10100000
          -39 callgsubr
          hintmask 01100000
          147 callsubr
          -267 693 455 callsubr
          241 -698 42 callsubr
        </CharString>
        <CharString name="Amacron">
          243 callgsubr
          557 68 hstemhm
          161 352 hintmask 10110000
          -39 callgsubr
          hintmask 01110000
          147 callsubr
          -328 631 rmoveto
          352 68 -352 hlineto
          302 -625 42 callsubr
        </CharString>
        <CharString name="Aogonek">
          69 -206 61 166 -21 155 74 hstemhm
          451 75 -75 199 hintmask 11110000
          285 693 rmoveto
          -252 -693 rlineto
          96 hlineto
          147 callsubr
          52 -143 rlineto
          -66 -36 -24 -39 -43 vvcurveto
          -73 63 -27 60 vhcurveto
          hintmask 11101000
          26 28 6 8 22 hvcurveto
          60 vlineto
          hintmask 11110000
          -8 -22 -24 -5 -19 hhcurveto
          -35 -24 17 31 25 15 23 46 22 hvcurveto
          54 27 -251 693 rlineto
          73 -464 42 callsubr
        </CharString>
        <CharString name="Aring">
          243 callgsubr
          523 49 113 48 hstemhm
          231 53 108 53 hintmask 10111100
          -39 callgsubr
          hintmask 01111100
          147 callsubr
          -151 646 rmoveto
          -30 -24 23 34 34 24 22 30 30 24 -22 -34 -34 -24 -23 -30 hvcurveto
          161 vmoveto
          -58 -49 -40 -65 -65 49 -40 58 59 48 40 65 65 -48 40 -59 hvcurveto
          125 -733 42 callsubr
        </CharString>
        <CharString name="Atilde">
          243 callgsubr
          521 61 -15 61 hstemhm
          33 608 hintmask 10101000
          -39 callgsubr
          hintmask 01011000
          147 callsubr
          -299 597 -56 callgsubr
          hintmask 01101000
          -83 callgsubr
          hintmask 01011000
          -52 -38 -36 -69 -10 hvcurveto
          273 -523 42 callsubr
        </CharString>
        <CharString name="B">
          8 0 75 246 75 226 75 hstemhm
          77 91 287 93 -75 91 hintmask 11110100
          473 196 rmoveto
          -76 -54 -45 -90 vhcurveto
          -161 246 158 hlineto
          89 58 -48 -77 hvcurveto
          hintmask 11111000
          -18 313 rmoveto
          -71 -49 -42 -85 vhcurveto
          -153 226 151 hlineto
          89 47 -44 -69 hvcurveto
          hintmask 11110100
          109 -322 rmoveto
          86 -62 73 -76 13 vhcurveto
          hintmask 11111000
          67 22 55 51 88 vvcurveto
          97 -74 80 -147 vhcurveto
          -250 -697 260 hlineto
          hintmask 11110100
          144 83 82 105 hvcurveto
          endchar
        </CharString>
        <CharString name="C">
          388 callsubr
          -75 callsubr
          endchar
        </CharString>
        <CharString name="CR">
          -338 endchar
        </CharString>
        <CharString name="Cacute">
          388 callsubr
          145 213 -75 callsubr
          238 459 -77 callgsubr
          endchar
        </CharString>
        <CharString name="Ccaron">
          388 callsubr
          122 277 -75 callsubr
          354 468 rmoveto
          -72 callsubr
        </CharString>
        <CharString name="Ccedilla">
          167 473 callsubr
          53 78 553 80 hstem
          43 93 229 61 53 76 vstem
          43 349 rmoveto
          -200 140 -142 182 -12 vhcurveto
          -109 50 vlineto
          6 callgsubr
          66 -52 34 -77 -1 hvcurveto
          53 vlineto
          134 11 106 74 48 123 rrcurveto
          -109 hlineto
          -83 -38 -74 -47 -102 hhcurveto
          -146 -109 106 170 171 109 106 146 102 74 -47 -84 38 537 callsubr
          135 -52 -120 76 -151 hhcurveto
          -195 -153 -148 -209 hvcurveto
          endchar
        </CharString>
        <CharString name="Cdotaccent">
          167 -6 79 553 80 61 105 hstem
          43 93 208 105 -75 callsubr
          354 418 -59 callgsubr
        </CharString>
        <CharString name="D">
          102 0 75 548 74 hstem
          77 91 403 75 callgsubr
          endchar
        </CharString>
        <CharString name="Dcaron">
          102 0 75 548 74 hstem
          77 91 45 277 81 75 callgsubr
          58 736 rmoveto
          -72 callsubr
        </CharString>
        <CharString name="Dcroat">
          9 callsubr
        </CharString>
        <CharString name="E">
          235 callsubr
          32 callsubr
          -61 callsubr
          endchar
        </CharString>
        <CharString name="Eacute">
          235 callsubr
          32 callsubr
          -313 213 -61 callsubr
          hintmask 11100010
          -313 179 -77 callgsubr
          endchar
        </CharString>
        <CharString name="Ebreve">
          235 callsubr
          -75 272 -148 71 32 callsubr
          -340 476 callgsubr
          hintmask 1110100100000000
          452 698 rmoveto
          hintmask 1110110001000000
          -375 -698 hlineto
          hintmask 1110100100000000
          375 75 hlineto
          hintmask 1110110001000000
          -284 240 hlineto
          hintmask 1110101000000000
          254 75 hlineto
          hintmask 1110110001000000
          -254 233 hlineto
          hintmask 1110100100000000
          284 hlineto
          hintmask 1110110001000000
          -55 254 rmoveto
          hintmask 1101010001000000
          18 -54 vlineto
          hintmask 1110110001000000
          -48 -24 -29 -64 vhcurveto
          hintmask 1101000011000000
          -65 -24 29 48 hvcurveto
          -54 -17 hlineto
          hintmask 1110100011000000
          -75 51 -56 92 vhcurveto
          hintmask 1110110001000000
          92 50 56 74 hvcurveto
          endchar
        </CharString>
        <CharString name="Ecaron">
          235 callsubr
          32 callsubr
          -336 277 -61 callsubr
          -197 188 rmoveto
          hintmask 11100010
          -72 callsubr
        </CharString>
        <CharString name="Ecircumflex">
          235 callsubr
          32 callsubr
          -336 277 -61 callsubr
          hintmask 11100010
          -59 191 -70 callsubr
          endchar
        </CharString>
        <CharString name="Edieresis">
          235 callsubr
          69 105 32 callsubr
          -331 105 58 105 hintmask 1110001000000000
          452 698 rmoveto
          hintmask 1110100000000000
          -375 -698 hlineto
          hintmask 1110001000000000
          375 75 hlineto
          hintmask 1110100000000000
          -284 240 hlineto
          hintmask 1110010000000000
          254 75 hlineto
          hintmask 1110100000000000
          -254 233 hlineto
          hintmask 1110001000000000
          284 hlineto
          hintmask 1111000110000000
          -278 144 -99 callgsubr
          endchar
        </CharString>
        <CharString name="Edotaccent">
          235 callsubr
          63 105 32 callsubr
          -250 105 hintmask 11100010
          452 698 rmoveto
          hintmask 11101000
          -375 -698 hlineto
          hintmask 11100010
          375 75 hlineto
          hintmask 11101000
          -284 240 hlineto
          hintmask 11100100
          254 75 hlineto
          hintmask 11101000
          -254 233 hlineto
          hintmask 11100010
          284 hlineto
          hintmask 11111001
          -197 138 -59 callgsubr
        </CharString>
        <CharString name="Egrave">
          235 callsubr
          32 callsubr
          -313 213 -61 callsubr
          hintmask 11100010
          -313 225 455 callsubr
          endchar
        </CharString>
        <CharString name="Emacron">
          235 callsubr
          88 68 32 callsubr
          -374 352 hintmask 11110010
          452 698 rmoveto
          hintmask 11111000
          -375 -698 hlineto
          hintmask 11110010
          375 75 hlineto
          hintmask 11111000
          -284 240 hlineto
          hintmask 11110100
          254 75 hlineto
          hintmask 11111000
          -254 233 hlineto
          hintmask 11110010
          284 hlineto
          hintmask 11110001
          -374 163 99 callgsubr
        </CharString>
        <CharString name="Eogonek">
          -92 -206 61 145 129 callsubr
          32 callsubr
          -190 75 -75 199 hintmask 0111001000000000
          452 698 rmoveto
          hintmask 1111100100000000
          -375 -698 254 hlineto
          -50 -33 -19 -35 -38 397 callsubr
          vhcurveto
          hintmask 1111100010000000
          470 callgsubr
          hintmask 1111100100000000
          17 callgsubr
          hintmask 0111001000000000
          55 27 rlineto
          75 vlineto
          hintmask 0111100000000000
          -284 240 hlineto
          hintmask 0111010000000000
          254 75 hlineto
          hintmask 0111100000000000
          -254 233 hlineto
          hintmask 0111001000000000
          284 hlineto
          endchar
        </CharString>
        <CharString name="Eth">
          9 callsubr
        </CharString>
        <CharString name="Euro">
          206 -6 82 157 64 101 63 162 83 hstemhm
          25 429 -349 94 hintmask 11110100
          105 349 rmoveto
          -18 1 -17 2 -17 vhcurveto
          hintmask 11111000
          -83 -64 97 hlineto
          -145 45 130 -94 157 hhcurveto
          150 120 75 134 51 hvcurveto
          -108 hlineto
          -80 -38 -73 -47 -102 hhcurveto
          -108 -88 58 99 -39 hvcurveto
          235 64 hlineto
          hintmask 11110100
          -251 hlineto
          -3 17 -1 17 18 vvcurveto
          17 1 16 2 16 vhcurveto
          hintmask 11111000
          252 63 -236 hlineto
          102 36 89 60 111 hhcurveto
          102 73 -47 -81 38 hvcurveto
          108 hlineto
          135 -51 -120 76 -150 hhcurveto
          -159 -130 -97 -148 -44 hvcurveto
          -96 -63 hlineto
          hintmask 11110100
          83 hlineto
          -2 -16 -1 -16 -17 vvcurveto
          endchar
        </CharString>
        <CharString name="F">
          -101 21 -21 314 74 235 74 hstemhm
          77 91 -91 337 -337 394 hintmask 11110000
          77 hmoveto
          91 314 hlineto
          hintmask 11101000
          246 74 hlineto
          hintmask 11110000
          -246 235 hlineto
          hintmask 11100100
          303 74 hlineto
          hintmask 11110000
          -394 hlineto
          endchar
        </CharString>
        <CharString name="G">
          386 callgsubr
          hstemhm
          43 93 224 375 -97 97 hintmask 11110100
          177 callgsubr
          hintmask 11111000
          -375 -74 hlineto
          hintmask 11110100
          -26 callgsubr
          endchar
        </CharString>
        <CharString name="Gbreve">
          386 callgsubr
          42 71 hstemhm
          43 93 114 54 56 375 -254 54 103 97 hintmask 1111110110000000
          177 callgsubr
          hintmask 1111111000000000
          -375 -74 hlineto
          hintmask 1111110110000000
          -26 callgsubr
          142 172 -85 callgsubr
          endchar
        </CharString>
        <CharString name="Gdotaccent">
          386 callgsubr
          56 105 hstemhm
          43 93 203 105 -84 375 -97 97 hintmask 11101001
          177 callgsubr
          hintmask 11101010
          -375 -74 hlineto
          hintmask 11101001
          -26 callgsubr
          hintmask 11111101
          -1 56 -59 callgsubr
        </CharString>
        <CharString name="H">
          86 0 391 -75 75 -75 381 hstemhm
          77 91 355 91 hintmask 10011000
          523 hmoveto
          91 hlineto
          hintmask 00111000
          697 -91 vlineto
          hintmask 01011000
          -306 -355 vlineto
          hintmask 00111000
          306 -91 vlineto
          hintmask 10011000
          -697 91 vlineto
          hintmask 01011000
          316 355 vlineto
          endchar
        </CharString>
        <CharString name="I">
          238 callsubr
          508 callgsubr
          endchar
        </CharString>
        <CharString name="Iacute">
          -359 21 -21 697 478 callsubr
          697 -91 hlineto
          hintmask 11100000
          -70 105 -77 callgsubr
          endchar
        </CharString>
        <CharString name="Icircumflex">
          -359 21 -21 697 550 callsubr
          hintmask 11010000
          77 hmoveto
          91 697 -91 hlineto
          hintmask 11001000
          184 117 rmoveto
          -138 83 rlineto
          hintmask 11100000
          -139 -83 rlineto
          -72 vlineto
          139 85 rlineto
          hintmask 11001000
          138 -85 rlineto
          endchar
        </CharString>
        <CharString name="Idieresis">
          238 callsubr
          90 105 hstemhm
          -11 105 -17 91 -16 105 hintmask 11101000
          77 hmoveto
          91 697 -91 hlineto
          hintmask 11110100
          -35 70 -99 callgsubr
          endchar
        </CharString>
        <CharString name="Idotaccent">
          238 callsubr
          84 105 508 callgsubr
          46 64 -59 callgsubr
        </CharString>
        <CharString name="Igrave">
          238 callsubr
          hstemhm
          77 91 -91 143 hintmask 11100000
          77 hmoveto
          91 697 -91 hlineto
          -70 151 rmoveto
          hintmask 11010000
          -47 callgsubr
          endchar
        </CharString>
        <CharString name="Imacron">
          238 callsubr
          109 68 508 callgsubr
          -131 89 99 callgsubr
        </CharString>
        <CharString name="Iogonek">
          -359 -205 61 165 539 callsubr
          hstemhm
          -22 75 24 91 hintmask 11101000
          177 -191 rmoveto
          60 vlineto
          hintmask 11111000
          17 callgsubr
          hintmask 11101000
          53 26 rlineto
          2 697 -91 -679 hlineto
          hintmask 11111000
          -72 -37 -27 -42 -44 397 callsubr
          vhcurveto
          hintmask 11101000
          355 callgsubr
          hvcurveto
          endchar
        </CharString>
        <CharString name="Itilde">
          238 callsubr
          73 500 callgsubr
          hintmask 11101000
          77 hmoveto
          91 697 -91 hlineto
          hintmask 11011000
          -101 55 -56 callgsubr
          hintmask 11101000
          -83 callgsubr
          hintmask 11011000
          72 callsubr
        </CharString>
        <CharString name="J">
          -75 -7 81 623 -20 hstem
          41 91 204 92 vstem
          336 182 rmoveto
          -58 -29 -50 -72 -72 -30 51 64 -1 vhcurveto
          -91 hlineto
          -122 78 -74 116 115 78 73 116 vhcurveto
          515 -92 vlineto
          endchar
        </CharString>
        <CharString name="K">
          -6 246 callgsubr
          hstem
          77 91 vstem
          455 hmoveto
          193 callsubr
        </CharString>
        <CharString name="L">
          -173 0 385 callgsubr
          298 callgsubr
          endchar
        </CharString>
        <CharString name="Lacute">
          -173 0 385 callgsubr
          -311 67 298 callgsubr
          hintmask 11001000
          -67 105 -77 callgsubr
          endchar
        </CharString>
        <CharString name="Lcaron">
          -159 0 74 418 43 77 85 hstemhm
          77 91 -91 335 -82 54 hintmask 11110100
          281 697 rmoveto
          -85 49 -23 vlineto
          -36 -13 -18 -34 vhcurveto
          -43 vlineto
          66 35 35 79 26 -3 30 -8 35 hvcurveto
          -296 hmoveto
          -697 vlineto
          hintmask 11101000
          335 74 hlineto
          hintmask 11110100
          -244 623 hlineto
          endchar
        </CharString>
        <CharString name="Ldot">
          -173 0 74 623 -20 84 105 hstemhm
          77 91 -91 335 -248 105 hintmask 11110000
          77 697 rmoveto
          -697 vlineto
          hintmask 11101000
          335 74 hlineto
          hintmask 11110000
          -244 623 hlineto
          hintmask 11100100
          49 64 -59 callgsubr
        </CharString>
        <CharString name="Lslash">
          -168 0 70 627 -20 hstemhm
          91 91 -91 200 hintmask 11100000
          91 697 rmoveto
          -319 vlineto
          -82 -30 rlineto
          -69 vlineto
          82 29 rlineto
          -308 334 70 -243 271 vlineto
          hintmask 11010000
          109 39 rlineto
          70 vlineto
          hintmask 11100000
          -109 -39 rlineto
          286 vlineto
          endchar
        </CharString>
        <CharString name="M">
          256 0 692 hstem
          77 91 525 398 callgsubr
          517 hlineto
          231 -517 rlineto
          64 hlineto
          230 516 rlineto
          -516 91 692 -97 vlineto
          -256 -572 -256 572 rlineto
          -98 hlineto
          endchar
        </CharString>
        <CharString name="N">
          428 callsubr
          366 91 vstem
          534 698 9 callgsubr
          endchar
        </CharString>
        <CharString name="NULL">
          -605 endchar
        </CharString>
        <CharString name="Nacute">
          428 callsubr
          68 213 85 91 vstem
          534 698 9 callgsubr
          -389 104 -77 callgsubr
          endchar
        </CharString>
        <CharString name="Ncaron">
          428 callsubr
          45 277 44 91 vstem
          534 698 9 callgsubr
          -273 113 rmoveto
          -72 callsubr
        </CharString>
        <CharString name="Ntilde">
          98 21 -21 698 -20 72 500 callgsubr
          366 91 hintmask 11101100
          534 698 9 callgsubr
          hintmask 11011100
          -420 54 -56 callgsubr
          hintmask 11101100
          -83 callgsubr
          hintmask 11011100
          72 callsubr
        </CharString>
        <CharString name="O">
          387 callsubr
          514 93 vstem
          -105 callgsubr
          endchar
        </CharString>
        <CharString name="OE">
          481 -7 82 -75 72 244 71 171 -20 85 82 -79 71 hstemhm
          43 93 514 91 hintmask 01110111
          1024 626 rmoveto
          71 -374 -139 vlineto
          hintmask 10111011
          94 -52 -95 53 -118 hhcurveto
          -187 -155 -145 -211 -209 154 -147 189 117 95 53 97 52 hvcurveto
          hintmask 01110111
          -143 374 72 -283 244 253 71 -253 239 vlineto
          hintmask 10111011
          -348 -3 rmoveto
          147 110 -106 -168 -167 -110 -107 -147 -147 -110 107 167 168 110 106 147 hvcurveto
          endchar
        </CharString>
        <CharString name="Oacute">
          387 callsubr
          144 213 157 93 vstem
          -105 callgsubr
          144 453 -77 callgsubr
          endchar
        </CharString>
        <CharString name="Ocircumflex">
          387 callsubr
          121 277 116 93 vstem
          -105 callgsubr
          398 465 -70 callsubr
          endchar
        </CharString>
        <CharString name="Odieresis">
          169 callgsubr
          62 105 hstem
          43 93 126 105 58 105 120 93 vstem
          -105 callgsubr
          179 418 -99 callgsubr
          endchar
        </CharString>
        <CharString name="Ograve">
          387 callsubr
          144 213 157 93 vstem
          -105 callgsubr
          144 499 455 callsubr
          endchar
        </CharString>
        <CharString name="Ohungarumlaut">
          169 callgsubr
          41 154 hstem
          43 93 514 93 vstem
          -105 callgsubr
          212 551 11 callgsubr
        </CharString>
        <CharString name="Omacron">
          169 callgsubr
          81 68 hstem
          43 93 83 352 79 93 vstem
          -105 callgsubr
          83 437 99 callgsubr
        </CharString>
        <CharString name="Oslash">
          181 -7 79 -51 -21 626 79 -7 563 callgsubr
          514 93 hintmask 10101100
          743 349 rmoveto
          98 -33 84 -56 62 vhcurveto
          hintmask 10011100
          97 105 rlineto
          -74 hlineto
          hintmask 01101100
          -63 -68 rlineto
          48 -59 -77 27 -85 hhcurveto
          -196 399 callsubr
          -209 -97 34 -84 55 -62 hvcurveto
          -97 -106 rlineto
          74 hlineto
          hintmask 10101100
          63 68 rlineto
          -48 60 76 -27 85 hhcurveto
          197 153 147 209 hvcurveto
          -607 hmoveto
          171 110 106 147 64 57 -20 -37 44 vhcurveto
          -367 -400 rlineto
          -35 46 -20 61 73 vvcurveto
          257 -277 rmoveto
          -64 -57 20 37 -44 hvcurveto
          368 400 rlineto
          34 -46 20 -61 -73 vvcurveto
          -170 -110 -107 -147 vhcurveto
          endchar
        </CharString>
        <CharString name="Otilde">
          169 callgsubr
          45 61 -15 61 hstemhm
          43 93 514 93 hintmask 11101100
          -105 callgsubr
          hintmask 11011100
          113 403 -56 callgsubr
          hintmask 11101100
          -83 callgsubr
          hintmask 11011100
          72 callsubr
        </CharString>
        <CharString name="P">
          -26 21 -21 291 75 256 75 hstem
          77 91 282 93 vstem
          168 366 rmoveto
          256 134 vlineto
          104 44 -48 -81 -78 -44 -49 -104 hvcurveto
          241 127 rmoveto
          114 -77 90 -164 vhcurveto
          -225 -697 91 291 134 hlineto
          173 68 96 106 hvcurveto
          endchar
        </CharString>
        <CharString name="Q">
          183 -7 79 554 79 hstem
          43 93 514 93 vstem
          136 349 rmoveto
          171 110 106 147 147 110 -106 -171 -170 -110 -107 -147 -147 -110 107 170 vhcurveto
          607 hmoveto
          209 -153 147 -197 -196 399 callsubr
          -209 -209 154 -147 196 36 35 5 9 33 vhcurveto
          139 -139 rlineto
          118 hlineto
          -176 175 rlineto
          100 60 65 110 136 vvcurveto
          endchar
        </CharString>
        <CharString name="R">
          3 21 -21 285 73 264 75 hstem
          77 91 282 94 vstem
          -25 callgsubr
          endchar
        </CharString>
        <CharString name="Racute">
          481 callsubr
          27 213 42 94 hintmask 11110100
          -25 callgsubr
          hintmask 11111100
          -107 105 -77 callgsubr
          endchar
        </CharString>
        <CharString name="Rcaron">
          481 callsubr
          4 277 1 94 hintmask 11110100
          -25 callgsubr
          9 114 rmoveto
          hintmask 11101000
          -72 callsubr
        </CharString>
        <CharString name="S">
          -18 -7 77 558 78 hstem
          61 93 284 92 vstem
          530 190 -80 callsubr
          -115 2 99 -78 140 hhcurveto
          151 81 98 99 hvcurveto
          endchar
        </CharString>
        <CharString name="Sacute">
          -18 -7 77 500 callsubr
          22 213 49 92 hintmask 11101000
          530 190 -80 callsubr
          -115 2 99 -78 140 hhcurveto
          151 81 98 99 hvcurveto
          hintmask 11111000
          -354 618 -77 callgsubr
          endchar
        </CharString>
        <CharString name="Scaron">
          -18 -7 77 500 callsubr
          -2 277 9 92 hintmask 11101000
          530 190 -80 callsubr
          -115 2 99 -78 140 hhcurveto
          151 81 98 99 hvcurveto
          -239 627 rmoveto
          hintmask 11011000
          -72 callsubr
        </CharString>
        <CharString name="T">
          -64 21 -21 623 74 hstem
          225 91 vstem
          34 623 rmoveto
          288 callgsubr
          endchar
        </CharString>
        <CharString name="Tcaron">
          -64 21 -21 623 74 hstemhm
          132 277 -184 91 hintmask 11010000
          34 623 rmoveto
          288 callgsubr
          237 114 rmoveto
          hintmask 11100000
          -72 callsubr
        </CharString>
        <CharString name="Thorn">
          -26 0 219 -73 73 262 72 -72 217 hstemhm
          77 91 282 93 hintmask 01101100
          168 219 rmoveto
          262 134 vlineto
          104 44 -52 -80 -78 -44 -52 -104 hvcurveto
          241 130 rmoveto
          114 -77 90 -164 vhcurveto
          -134 hlineto
          hintmask 10011100
          145 -91 -698 91 vlineto
          hintmask 01101100
          146 134 vlineto
          173 68 96 107 hvcurveto
          endchar
        </CharString>
        <CharString name="U">
          428 callgsubr
          343 91 vstem
          -94 callsubr
          endchar
        </CharString>
        <CharString name="Uacute">
          428 callgsubr
          56 213 74 91 vstem
          -94 callsubr
          147 105 -77 callgsubr
          endchar
        </CharString>
        <CharString name="Ubreve">
          210 callsubr
          70 71 hstemhm
          75 91 29 476 callgsubr
          29 91 hintmask 11110010
          -94 callsubr
          hintmask 11111110
          405 180 -85 callgsubr
          endchar
        </CharString>
        <CharString name="Ucircumflex">
          428 callgsubr
          33 277 33 91 vstem
          -94 callsubr
          401 117 -70 callsubr
          endchar
        </CharString>
        <CharString name="Udieresis">
          210 callsubr
          90 105 hstem
          75 91 38 105 58 105 37 91 vstem
          -94 callsubr
          182 70 -99 callgsubr
          endchar
        </CharString>
        <CharString name="Ugrave">
          428 callgsubr
          56 213 74 91 vstem
          -94 callsubr
          147 151 455 callsubr
          endchar
        </CharString>
        <CharString name="Uhungarumlaut">
          210 callsubr
          69 154 hstem
          75 91 343 91 vstem
          -94 callsubr
          215 203 11 callgsubr
        </CharString>
        <CharString name="Umacron">
          210 callsubr
          109 68 hstemhm
          75 91 -5 352 -4 91 hintmask 11110100
          -94 callsubr
          hintmask 11101000
          86 89 99 callgsubr
        </CharString>
        <CharString name="Uogonek">
          70 -206 61 -61 279 -55 -21 700 -20 hstemhm
          75 91 52 75 -75 199 92 91 hintmask 10111101
          75 257 rmoveto
          -158 90 -83 118 -19 vhcurveto
          -47 -32 -18 -34 -37 397 callsubr
          vhcurveto
          hintmask 10111011
          470 callgsubr
          hintmask 10111101
          17 callgsubr
          55 27 rlineto
          110 24 82 83 150 vvcurveto
          440 -91 -441 vlineto
          hintmask 01011101
          -128 -68 -55 -103 -103 -69 55 128 vhcurveto
          441 -91 vlineto
          endchar
        </CharString>
        <CharString name="Uring">
          210 callsubr
          75 49 113 48 hstem
          75 91 65 53 108 53 64 91 vstem
          -94 callsubr
          263 265 -10 callgsubr
          endchar
        </CharString>
        <CharString name="Utilde">
          210 callsubr
          73 61 -15 61 hstemhm
          75 91 343 91 hintmask 11101100
          -94 callsubr
          hintmask 11011100
          115 55 -56 callgsubr
          hintmask 11101100
          -83 callgsubr
          hintmask 11011100
          72 callsubr
        </CharString>
        <CharString name="V">
          71 0 96 601 -20 hstem
          22 631 vstem
          338 96 rmoveto
          -219 601 rlineto
          -97 hlineto
          263 -697 rlineto
          105 hlineto
          263 697 rlineto
          -96 hlineto
          endchar
        </CharString>
        <CharString name="W">
          59 callsubr
          hstemhm
          23 930 -53 callgsubr
          endchar
        </CharString>
        <CharString name="Wacute">
          59 callsubr
          hstemhm
          442 213 -53 callgsubr
          419 113 -77 callgsubr
          endchar
        </CharString>
        <CharString name="Wcircumflex">
          59 callsubr
          hstemhm
          346 277 -53 callgsubr
          600 125 -70 callsubr
          endchar
        </CharString>
        <CharString name="Wdieresis">
          59 callsubr
          96 105 hstemhm
          351 105 58 105 hintmask 0010101110000000
          218 -1 rmoveto
          101 1 168 561 rlineto
          hintmask 0001011110000000
          162 -561 rlineto
          102 hlineto
          202 697 rlineto
          -98 hlineto
          hintmask 0100011110000000
          -153 -589 -160 589 rlineto
          -102 hlineto
          hintmask 1000011110000000
          -168 -591 -152 591 rlineto
          -97 hlineto
          381 76 -99 callgsubr
          endchar
        </CharString>
        <CharString name="Wgrave">
          59 callsubr
          hstemhm
          327 213 -53 callgsubr
          304 156 455 callsubr
          endchar
        </CharString>
        <CharString name="X">
          16 246 callgsubr
          hstem
          45 532 vstem
          473 hmoveto
          103 hlineto
          -214 348 215 349 rlineto
          -102 hlineto
          -160 -273 -168 273 rlineto
          -102 hlineto
          214 -349 -213 -348 rlineto
          101 hlineto
          159 272 rlineto
          endchar
        </CharString>
        <CharString name="Y">
          -21 246 callgsubr
          hstem
          247 91 vstem
          -38 callsubr
          endchar
        </CharString>
        <CharString name="Yacute">
          -21 246 callgsubr
          hstemhm
          177 213 -143 91 hintmask 11010000
          -38 callsubr
          hintmask 11100000
          158 105 -77 callgsubr
          endchar
        </CharString>
        <CharString name="Ycircumflex">
          -21 246 callgsubr
          hstemhm
          154 277 -184 91 hintmask 11010000
          -38 callsubr
          hintmask 11100000
          412 117 -70 callsubr
          endchar
        </CharString>
        <CharString name="Ydieresis">
          -21 246 callgsubr
          90 105 hstemhm
          159 105 -17 91 -16 105 hintmask 11101000
          -38 callsubr
          hintmask 11110100
          193 70 -99 callgsubr
          endchar
        </CharString>
        <CharString name="Ygrave">
          -21 246 callgsubr
          hstemhm
          177 213 -143 91 hintmask 11010000
          -38 callsubr
          hintmask 11100000
          158 151 455 callsubr
          endchar
        </CharString>
        <CharString name="Z">
          260 callsubr
          45 callsubr
          endchar
        </CharString>
        <CharString name="Zacute">
          260 callsubr
          -337 213 45 callsubr
          hintmask 11001000
          -337 177 -77 callgsubr
          endchar
        </CharString>
        <CharString name="Zcaron">
          260 callsubr
          -360 277 45 callsubr
          -221 186 rmoveto
          hintmask 11001000
          -72 callsubr
        </CharString>
        <CharString name="Zdotaccent">
          -64 0 79 539 79 64 105 hstemhm
          46 448 -444 442 -274 105 hintmask 11001000
          492 697 rmoveto
          -442 -79 334 hlineto
          hintmask 11010000
          -338 -546 rlineto
          -72 448 79 -340 vlineto
          hintmask 11001000
          338 546 rlineto
          hintmask 11100100
          -221 136 -59 callgsubr
        </CharString>
        <CharString name="a">
          61 callgsubr
          hstemhm
          43 93 371 92 hintmask 10101100
          -43 callgsubr
          hintmask 01011100
          170 callgsubr
          hintmask 10101100
          57 -32 -70 52 -102 hhcurveto
          -147 -104 callsubr
          endchar
        </CharString>
        <CharString name="a.ss02">
          -7 61 callsubr
          hstemhm
          43 92 293 92 hintmask 01111100
          428 hmoveto
          92 321 hlineto
          -91 callgsubr
          hintmask 10111100
          -86 callsubr
        </CharString>
        <CharString name="aacute">
          61 callgsubr
          hstemhm
          43 93 87 213 71 92 hintmask 10101010
          -43 callgsubr
          hintmask 01011010
          170 callgsubr
          hintmask 10101010
          57 -32 -70 52 -102 hhcurveto
          -147 -104 callsubr
          hintmask 10101110
          -284 382 -77 callgsubr
          endchar
        </CharString>
        <CharString name="aacute.ss02">
          -7 61 callsubr
          hstemhm
          43 92 88 213 -8 92 hintmask 01111100
          223 489 callgsubr
          hintmask 01111010
          -8 -782 rmoveto
          92 321 hlineto
          -91 callgsubr
          hintmask 10111010
          -86 callsubr
        </CharString>
        <CharString name="abreve">
          61 callgsubr
          74 71 77 563 callgsubr
          60 476 callgsubr
          26 92 hintmask 1010111101000000
          -43 callgsubr
          hintmask 0101111101000000
          170 callgsubr
          hintmask 1010111101000000
          57 -32 -70 52 -102 hhcurveto
          -147 -104 callsubr
          hintmask 1010111111000000
          -26 457 -85 callgsubr
          endchar
        </CharString>
        <CharString name="abreve.ss02">
          -7 61 callsubr
          45 71 77 -20 hstemhm
          43 92 61 476 callgsubr
          -53 92 hintmask 0111111110000000
          481 732 -85 callgsubr
          hintmask 0111111101000000
          -53 -732 rmoveto
          92 321 hlineto
          -91 callgsubr
          hintmask 1011111101000000
          -86 callsubr
        </CharString>
        <CharString name="acircumflex">
          61 callgsubr
          224 563 callgsubr
          64 277 30 92 hintmask 10101101
          -43 callgsubr
          hintmask 01011101
          170 callgsubr
          hintmask 10101101
          57 -32 -70 52 -102 hhcurveto
          -147 -104 callsubr
          hintmask 10101111
          -30 394 -70 callsubr
          endchar
        </CharString>
        <CharString name="acircumflex.ss02">
          -7 61 callsubr
          195 -20 hstemhm
          43 92 65 277 -49 92 hintmask 01111110
          477 669 -70 callsubr
          hintmask 01111101
          -49 -597 rmoveto
          92 321 hlineto
          -91 callgsubr
          hintmask 10111101
          -86 callsubr
        </CharString>
        <CharString name="acute">
          -358 541 callsubr
          489 callgsubr
          endchar
        </CharString>
        <CharString name="adieresis">
          61 callgsubr
          94 105 hstemhm
          43 93 69 105 58 105 34 92 hintmask 1010010010000000
          -43 callgsubr
          hintmask 0101010010000000
          170 callgsubr
          hintmask 1010010010000000
          57 -32 -70 52 -102 hhcurveto
          -147 -104 callsubr
          hintmask 1010111110000000
          -249 347 -99 callgsubr
          endchar
        </CharString>
        <CharString name="adieresis.ss02">
          -7 61 callsubr
          65 105 hstemhm
          43 92 70 105 58 105 -45 92 hintmask 0111111010000000
          258 329 callsubr
          hintmask 0111111100000000
          162 hmoveto
          29 24 23 29 29 -24 24 -29 -30 -22 -24 -29 -29 22 -23 30 hvcurveto
          hintmask 0111111010000000
          8 -622 rmoveto
          92 321 hlineto
          -91 callgsubr
          hintmask 1011111010000000
          -86 callsubr
        </CharString>
        <CharString name="ae">
          492 300 callsubr
          -90 79 -76 76 372 94 hintmask 0101001110010000
          213 callgsubr
          hintmask 1001010110010000
          204 callsubr
          hintmask 0101010100110000
          -87 -72 -33 -77 -50 hvcurveto
          hintmask 0100100100110000
          101 -76 -101 vlineto
          hintmask 0101010101010000
          217 callgsubr
          hintmask 0010010101010000
          -105 79 106 vlineto
          hintmask 0101010100110000
          -70 39 80 -45 90 hhcurveto
          hintmask 0101001110010000
          131 86 78 100 28 hvcurveto
          hintmask 0101010110010000
          -907 107 rmoveto
          129 85 73 100 100 86 -76 -127 -129 -86 -75 -100 -100 -85 76 129 vhcurveto
          endchar
        </CharString>
        <CharString name="agrave">
          61 callgsubr
          hstemhm
          43 93 87 213 71 92 hintmask 10101010
          -43 callgsubr
          hintmask 01011010
          170 callgsubr
          hintmask 10101010
          57 -32 -70 52 -102 hhcurveto
          -147 -104 callsubr
          hintmask 10101110
          -284 428 455 callsubr
          endchar
        </CharString>
        <CharString name="agrave.ss02">
          -7 61 callsubr
          hstemhm
          43 92 88 213 -8 92 hintmask 01111100
          223 703 455 callsubr
          hintmask 01111010
          205 -782 rmoveto
          92 321 hlineto
          -91 callgsubr
          hintmask 10111010
          -86 callsubr
        </CharString>
        <CharString name="amacron">
          61 callgsubr
          113 68 hstemhm
          43 93 27 352 -8 92 hintmask 10101101
          -43 callgsubr
          hintmask 01011101
          170 callgsubr
          hintmask 10101101
          57 -32 -70 52 -102 hhcurveto
          -147 -104 callsubr
          hintmask 10101110
          -344 366 99 callgsubr
        </CharString>
        <CharString name="amacron.ss02">
          -6 61 callsubr
          84 68 hstemhm
          43 92 28 352 -87 92 hintmask 01111110
          163 641 rmoveto
          352 68 -352 hlineto
          hintmask 01111101
          265 -709 rmoveto
          92 321 hlineto
          -91 callgsubr
          hintmask 10111101
          -86 callsubr
        </CharString>
        <CharString name="ampersand">
          134 -12 78 -66 362 274 75 hstemhm
          37 91 13 91 174 91 hintmask 01110100
          497 548 rmoveto
          93 5 -67 70 -110 hhcurveto
          hintmask 01111100
          -113 -71 -66 -89 -51 17 -39 43 -50 hvcurveto
          hintmask 10110100
          -109 -43 -55 -77 -96 vvcurveto
          -129 99 -83 145 98 75 34 70 67 vhcurveto
          hintmask 01111100
          91 -92 rlineto
          119 hlineto
          -157 157 14 20 13 20 13 23 rlinecurve
          82 142 rlineto
          -98 hlineto
          -68 -114 -6 -10 -6 -9 -6 -9 rlinecurve
          -208 209 rlineto
          -49 52 -23 34 41 vvcurveto
          46 35 34 54 49 38 -31 -57 -2 vhcurveto
          hintmask 10110100
          -125 -482 rmoveto
          -91 -62 59 78 70 41 52 87 33 hvcurveto
          205 -206 rlineto
          -58 -52 -56 -28 -72 hhcurveto
          endchar
        </CharString>
        <CharString name="ampersand.ss03">
          69 -8 76 -47 -21 332 72 252 77 hstemhm
          37 81 39 91 180 91 hintmask 10111110
          157 571 rmoveto
          -57 27 -45 43 -54 vhcurveto
          10 -11 rlineto
          -3 -2 0 -3 hhcurveto
          -103 -89 -80 -123 -125 94 -84 113 98 78 66 86 20 hvcurveto
          hintmask 01111110
          116 -144 rlineto
          109 hlineto
          -373 469 rlineto
          -31 39 -13 26 36 vvcurveto
          46 33 40 55 56 36 -38 -54 -11 -2 -15 -4 -10 vhcurveto
          90 hlineto
          4 13 3 17 15 vvcurveto
          80 -62 80 -121 vhcurveto
          hintmask 10111110
          -117 -62 -80 -82 hvcurveto
          -39 -369 rmoveto
          78 54 52 68 68 61 -58 -76 -73 -55 -57 -69 -70 -57 55 79 vhcurveto
          endchar
        </CharString>
        <CharString name="aogonek">
          71 -206 61 136 163 callsubr
          -9 563 callgsubr
          273 75 23 92 hintmask 11010101
          -43 callgsubr
          -85 vlineto
          hintmask 11010111
          -72 -38 -26 -41 259 callgsubr
          hintmask 10110111
          25 15 23 45 22 vhcurveto
          hintmask 10101101
          55 27 rlineto
          548 -92 -100 vlineto
          hintmask 11010101
          57 -32 -70 52 -102 hhcurveto
          -147 -104 callsubr
          endchar
        </CharString>
        <CharString name="aogonek.ss02">
          -7 -206 61 135 80 -49 -21 251 74 153 79 hstemhm
          43 92 196 75 22 92 hintmask 10111111
          453 -206 rmoveto
          27 27 6 8 23 hvcurveto
          60 vlineto
          17 callgsubr
          hintmask 10111101
          55 27 -1 2 rlineto
          319 vlineto
          -91 callgsubr
          hintmask 11011101
          -95 77 -68 107 91 78 48 61 32 vhcurveto
          -83 vlineto
          hintmask 11011111
          -71 -37 -26 -41 -44 vvcurveto
          hintmask 10111111
          -73 62 -27 60 vhcurveto
          hintmask 11011101
          -318 365 rmoveto
          53 38 39 86 vhcurveto
          169 -9 hlineto
          -113 -95 -59 -88 -68 -42 36 53 vhcurveto
          endchar
        </CharString>
        <CharString name="apostrophemod.ss01">
          -443 580 42 77 86 hstem
          79 54 vstem
          30 785 rmoveto
          131 callsubr
        </CharString>
        <CharString name="approxequal">
          -86 200 81 -15 81 64 81 -15 81 hstemhm
          37 445 hintmask 01011000
          37 201 rmoveto
          318 callgsubr
          hintmask 10011000
          74 51 45 101 17 hvcurveto
          -68 hlineto
          390 callsubr
          hintmask 01011000
          -73 -50 -46 -100 -18 hvcurveto
          211 vmoveto
          318 callgsubr
          hintmask 01101000
          74 51 45 101 17 hvcurveto
          hintmask 01011000
          -68 hlineto
          hintmask 01101000
          390 callsubr
          hintmask 01011000
          -73 -50 -46 -100 -18 hvcurveto
          endchar
        </CharString>
        <CharString name="aring">
          61 callgsubr
          79 49 113 48 hstemhm
          43 93 96 53 108 53 61 92 hintmask 1010111111000000
          -43 callgsubr
          hintmask 0101111111000000
          170 callgsubr
          hintmask 1010111111000000
          57 -32 -70 52 -102 hhcurveto
          -147 -104 callsubr
          -168 542 -10 callgsubr
          endchar
        </CharString>
        <CharString name="aring.ss02">
          -7 61 callsubr
          50 49 113 48 hstemhm
          43 92 97 53 108 53 -18 92 hintmask 0111111110000000
          339 817 -10 callgsubr
          hintmask 0111111101000000
          89 -656 rmoveto
          92 321 hlineto
          -91 callgsubr
          hintmask 1011111101000000
          -86 callsubr
        </CharString>
        <CharString name="asciicircum">
          24 169 524 hstem
          37 556 vstem
          498 169 rmoveto
          95 hlineto
          -236 524 rlineto
          -85 hlineto
          -235 -524 rlineto
          94 hlineto
          185 412 rlineto
          endchar
        </CharString>
        <CharString name="asciitilde">
          -86 247 81 -15 81 hstemhm
          37 445 hintmask 01100000
          37 248 rmoveto
          318 callgsubr
          hintmask 10100000
          74 51 45 101 17 hvcurveto
          -68 hlineto
          390 callsubr
          hintmask 01100000
          -73 -50 -46 -100 -18 hvcurveto
          endchar
        </CharString>
        <CharString name="asterisk">
          -119 360 374 -187 -20 21 -20 hstemhm
          61 363 hintmask 10010000
          282 734 rmoveto
          -76 hlineto
          16 -152 -124 89 rlineto
          hintmask 00110000
          -37 -67 139 -56 -139 -58 39 -68 121 89 rlineto
          hintmask 10010000
          -15 -151 rlineto
          75 hlineto
          -16 151 121 -88 rlineto
          hintmask 01010000
          38 67 -140 57 139 58 -36 65 -122 -88 rlineto
          endchar
        </CharString>
        <CharString name="at">
          408 -199 65 127 62 -62 71 315 70 128 64 hstemhm
          72 76 125 85 257 69 -69 72 -60 57 182 74 hintmask 1101111100100000
          723 -7 rmoveto
          139 78 160 154 198 -137 136 -226 -294 -211 -223 -285 -203 143 -129 216 69 67 12 25 60 hvcurveto
          -12 62 rlineto
          -24 -51 -60 -10 -55 hhcurveto
          -188 -114 97 178 1 hvcurveto
          245 176 191 242 191 109 -101 -174 -105 -43 -142 -86 vhcurveto
          hintmask 1101111010100000
          -51 -8 38 57 9 hvcurveto
          50 289 rlineto
          -79 hlineto
          -11 -62 rlineto
          48 -22 -43 24 -63 hhcurveto
          -146 -100 -135 -149 hvcurveto
          hintmask 1011111100100000
          -104 60 -68 103 70 68 35 58 41 vhcurveto
          hintmask 1101111100100000
          -56 5 35 -37 68 hhcurveto
          hintmask 1011111001100000
          -96 254 rmoveto
          -103 -6 -70 -80 -88 hhcurveto
          -70 -35 47 68 99 61 101 100 78 36 -59 -73 -6 hvcurveto
          endchar
        </CharString>
        <CharString name="atilde">
          61 callgsubr
          77 61 -15 61 hstemhm
          43 93 371 92 hintmask 10101011
          -43 callgsubr
          hintmask 01011011
          170 callgsubr
          hintmask 10101011
          57 -32 -70 52 -102 hhcurveto
          -147 -104 callsubr
          hintmask 10100111
          -315 332 -56 callgsubr
          hintmask 10101011
          -83 callgsubr
          hintmask 10100111
          72 callsubr
        </CharString>
        <CharString name="atilde.ss02">
          -7 61 callsubr
          48 61 -15 61 hstemhm
          43 92 293 92 hintmask 01110111
          192 607 -56 callgsubr
          hintmask 01111011
          -83 callgsubr
          hintmask 01110111
          -52 -38 -36 -69 -10 hvcurveto
          hintmask 01111011
          236 -607 rmoveto
          92 321 hlineto
          -91 callgsubr
          hintmask 10111011
          -86 callsubr
        </CharString>
        <CharString name="b">
          483 callsubr
          77 91 372 93 hintmask 10111100
          168 446 rmoveto
          294 -91 vlineto
          hintmask 01111100
          -740 91 101 vlineto
          hintmask 10111100
          -60 34 71 -50 393 callsubr
          171 -112 110 -148 -97 -73 -50 -61 -35 hvcurveto
          372 -170 121 callsubr
        </CharString>
        <CharString name="backslash">
          53 -170 1112 hstem
          131 403 vstem
          221 942 rmoveto
          -90 hlineto
          313 -1112 rlineto
          90 hlineto
          endchar
        </CharString>
        <CharString name="bar">
          -314 -106 901 hstem
          100 91 vstem
          100 795 rmoveto
          -901 91 901 vlineto
          endchar
        </CharString>
        <CharString name="braceleft">
          -143 -187 79 963 79 hstemhm
          105 82 0 89 -69 88 hintmask 11001000
          207 233 rmoveto
          -78 -20 -109 -85 vvcurveto
          hintmask 11010000
          -98 61 -50 88 vhcurveto
          58 79 -41 hlineto
          -50 -27 21 54 hvcurveto
          76 19 110 83 vvcurveto
          hintmask 11001000
          68 -32 52 -76 17 vhcurveto
          2 vlineto
          76 16 32 52 68 vvcurveto
          hintmask 11010000
          83 -19 110 76 vvcurveto
          54 27 21 50 vhcurveto
          41 79 -58 hlineto
          -88 -61 -50 -98 hvcurveto
          -85 20 -109 -78 vvcurveto
          hintmask 11001000
          -50 -27 -41 -75 -14 vhcurveto
          hintmask 11100000
          -71 vlineto
          hintmask 11001000
          75 -14 27 -41 -50 vvcurveto
          endchar
        </CharString>
        <CharString name="braceright">
          -143 -187 1121 hstem
          68 289 vstem
          255 233 rmoveto
          -78 20 -109 -85 vvcurveto
          -98 -61 -50 -88 vhcurveto
          -58 79 41 hlineto
          50 27 21 54 hvcurveto
          76 -19 110 83 vvcurveto
          68 32 52 76 17 vhcurveto
          2 vlineto
          -76 16 -32 52 68 83 19 110 76 vvcurveto
          54 -27 21 -50 vhcurveto
          -41 79 58 hlineto
          88 61 -50 -98 hvcurveto
          -85 -20 -109 -78 vvcurveto
          -50 27 -41 75 -14 vhcurveto
          -71 vlineto
          -75 -14 -27 -41 -50 vvcurveto
          endchar
        </CharString>
        <CharString name="bracketleft">
          -182 -186 76 969 75 hstem
          133 85 vstem
          133 -186 rmoveto
          180 76 -95 969 95 75 -180 hlineto
          endchar
        </CharString>
        <CharString name="bracketright">
          -182 -110 969 hstem
          110 180 vstem
          290 -186 rmoveto
          -180 76 95 969 -95 75 180 hlineto
          endchar
        </CharString>
        <CharString name="breve">
          -285 602 71 77 -20 hstem
          17 476 callgsubr
          vstem
          302 732 -85 callgsubr
          endchar
        </CharString>
        <CharString name="brokenbar">
          -314 -106 379 144 378 hstem
          100 91 vstem
          100 273 rmoveto
          -379 91 379 vlineto
          144 vmoveto
          378 -91 -378 vlineto
          endchar
        </CharString>
        <CharString name="bullet">
          -193 211 245 hstem
          83 246 vstem
          205 211 rmoveto
          69 55 54 68 69 -55 54 -69 -68 -54 -54 -69 -68 54 -54 68 hvcurveto
          endchar
        </CharString>
        <CharString name="c">
          2 438 callgsubr
          hstem
          43 93 vstem
          -66 callgsubr
          endchar
        </CharString>
        <CharString name="cacute">
          2 438 callgsubr
          hstem
          43 93 53 213 vstem
          -66 callgsubr
          146 382 -77 callgsubr
          endchar
        </CharString>
        <CharString name="caron">
          -294 751 -20 hstem
          17 277 vstem
          156 666 rmoveto
          -72 callsubr
        </CharString>
        <CharString name="ccaron">
          2 438 callgsubr
          194 563 callgsubr
          29 277 hintmask 11110000
          -66 callgsubr
          261 391 rmoveto
          hintmask 11111000
          -72 callsubr
        </CharString>
        <CharString name="ccedilla">
          2 473 callsubr
          50 76 412 77 hstem
          43 93 141 61 53 76 vstem
          43 275 rmoveto
          -161 96 -107 138 -14 vhcurveto
          -107 50 vlineto
          6 callgsubr
          66 -52 34 -77 -1 hvcurveto
          50 vlineto
          120 10 79 73 26 101 rrcurveto
          -98 hlineto
          -69 -20 -54 -39 -81 hhcurveto
          -100 -74 71 136 134 74 71 100 81 55 -42 -66 19 hvcurveto
          98 hlineto
          115 -28 -89 70 -136 hhcurveto
          -156 -111 -110 -172 hvcurveto
          endchar
        </CharString>
        <CharString name="cdotaccent">
          2 438 callgsubr
          60 105 hstem
          43 93 115 105 vstem
          -66 callgsubr
          261 342 -59 callgsubr
        </CharString>
        <CharString name="cedilla">
          -333 473 callsubr
          -56 121 hstemhm
          64 61 53 76 hintmask 10111000
          125 7 rmoveto
          -61 hlineto
          hintmask 11011000
          -121 50 vlineto
          6 callgsubr
          66 -52 34 -77 -1 hvcurveto
          endchar
        </CharString>
        <CharString name="cent">
          60 -89 169 -75 75 365 74 -74 166 hstemhm
          65 86 142 54 hintmask 01101100
          556 184 rmoveto
          -85 hlineto
          -64 -15 -51 -40 -83 hhcurveto
          -99 -72 64 118 118 72 65 99 83 51 -41 -63 15 hvcurveto
          85 hlineto
          -12 96 -79 73 -118 9 rrcurveto
          hintmask 10011100
          92 -54 -92 vlineto
          -148 -12 -80 -107 -138 vvcurveto
          -138 80 -107 148 -12 vhcurveto
          -94 54 vlineto
          hintmask 01101100
          94 vlineto
          118 9 79 73 12 97 rrcurveto
          endchar
        </CharString>
        <CharString name="circumflex">
          -294 752 -20 hstem
          17 277 vstem
          294 669 -70 callsubr
          endchar
        </CharString>
        <CharString name="colon">
          -392 -6 124 304 124 hstem
          44 122 vstem
          166 343 callsubr
          428 vmoveto
          174 callsubr
        </CharString>
        <CharString name="colon.ss01">
          -367 0 112 316 111 hstem
          60 110 vstem
          60 hmoveto
          110 112 -110 hlineto
          316 vmoveto
          110 111 -110 hlineto
          endchar
        </CharString>
        <CharString name="comma">
          -407 -143 269 hstem
          -2 173 vstem
          -2 -143 495 callgsubr
        </CharString>
        <CharString name="comma.ss01">
          -418 -125 46 81 92 hstem
          87 60 vstem
          33 285 callgsubr
          endchar
        </CharString>
        <CharString name="copyright">
          187 -6 39 -39 124 149 165 149 123 -40 40 hstemhm
          49 43 -43 129 522 43 hintmask 10101101
          49 349 rmoveto
          -208 142 -147 206 205 141 147 208 208 -141 147 -205 -206 -142 -147 -208 vhcurveto
          651 hmoveto
          -187 -117 -129 -186 -188 -117 129 187 188 117 127 188 186 117 -127 -188 vhcurveto
          hintmask 01110011
          -100 83 rmoveto
          -84 hlineto
          54 -17 -47 29 -57 hhcurveto
          -76 -60 -56 -110 -109 60 -56 76 62 40 30 53 19 hvcurveto
          84 hlineto
          -90 -26 -78 -59 -101 hhcurveto
          -120 -97 88 144 144 97 87 120 101 78 -54 -95 26 hvcurveto
          endchar
        </CharString>
        <CharString name="currency">
          -68 200 59 237 58 hstem
          92 76 201 77 vstem
          369 377 rmoveto
          -77 -50 -41 -52 -55 -44 41 77 77 45 42 54 54 48 -42 -77 vhcurveto
          63 -207 rmoveto
          41 42 -59 59 rlineto
          20 29 12 36 41 vvcurveto
          42 -12 37 -21 28 vhcurveto
          60 60 -41 42 -61 -61 rlineto
          19 -29 -35 10 -39 hhcurveto
          -39 -35 -10 -19 -28 hvcurveto
          -61 61 -42 -42 61 -60 rlineto
          -20 -28 -12 -37 -42 vvcurveto
          -42 11 -35 19 -29 vhcurveto
          -59 -59 42 -42 59 59 rlineto
          -19 28 35 -10 40 hhcurveto
          39 36 11 19 30 hvcurveto
          endchar
        </CharString>
        <CharString name="d">
          483 callsubr
          43 93 371 92 hintmask 10111100
          361 callgsubr
          hintmask 01111100
          449 callsubr
          hintmask 10111100
          0 callgsubr
        </CharString>
        <CharString name="dagger">
          -59 -239 -21 740 68 hstem
          232.5 81 vstem
          309 540 rmoveto
          9 241 rlineto
          -90 hlineto
          9 -241 -193 8 rlineto
          -72 vlineto
          193 8 -9 -744 rlineto
          90 hlineto
          -9 744 193 -8 rlineto
          72 vlineto
          endchar
        </CharString>
        <CharString name="daggerdbl">
          -58 -239 -21 237 64.5 438.5 68 hstemhm
          45 264 -76.5 81 -76.5 72 -72 265 hintmask 11100010
          502 548 rmoveto
          hintmask 11101000
          -193 -8 9 241 rlineto
          -90 hlineto
          9 -241 rlineto
          hintmask 11110000
          -192 8 rlineto
          -72 vlineto
          hintmask 11100100
          192 8 rlineto
          -447 vlineto
          hintmask 11110000
          -192 9 rlineto
          -73 vlineto
          hintmask 11101000
          192 8 -9 -241 rlineto
          90 hlineto
          -9 241 rlineto
          hintmask 11100010
          193 -8 rlineto
          73 vlineto
          hintmask 11100100
          -193 -9 rlineto
          447 vlineto
          hintmask 11100010
          193 -8 rlineto
          endchar
        </CharString>
        <CharString name="danda">
          -323 21 -21 741 -20 hstem
          157 82 490 callsubr
          endchar
        </CharString>
        <CharString name="dcaron">
          149 95 callgsubr
          -22 43 76 86 hstemhm
          43 93 371 92 101 54 hintmask 10101111
          651 740 rmoveto
          -86 49 vlineto
          hintmask 10011111
          -23 vlineto
          -35 -13 -18 -35 vhcurveto
          -43 vlineto
          67 35 35 78 27 -4 30 -7 35 hvcurveto
          hintmask 10101111
          -700 -464 510 callgsubr
          51 61 33 vhcurveto
          hintmask 01101111
          449 callsubr
          hintmask 10101111
          0 callgsubr
        </CharString>
        <CharString name="dcroat">
          70 95 callgsubr
          48 54 -54 135 hstemhm
          43 93 259 204 -92 92 hintmask 10101101
          361 callgsubr
          hintmask 01101101
          -103 92 605 61 vlineto
          hintmask 10110101
          54 -61 vlineto
          hintmask 10101101
          81 -92 vlineto
          hintmask 10110101
          -81 vlineto
          hintmask 10110110
          -112 hlineto
          hintmask 10101110
          -54 vlineto
          hintmask 10101101
          112 -155 hlineto
          63 -38 -79 44 -86 hhcurveto
          0 callgsubr
        </CharString>
        <CharString name="degree">
          -195 347 55 244 53 hstem
          28 73 207 73 vstem
          28 524 rmoveto
          -107 72 -70 103 103 75 70 107 107 -74 68 -102 -102 -75 -68 -107 vhcurveto
          280 hmoveto
          -81 -49 -41 -56 -57 -45 41 81 79 47 43 56 57 47 -43 -79 vhcurveto
          endchar
        </CharString>
        <CharString name="dieresis">
          -291 622 105 hstem
          23 105 58 105 vstem
          76 622 -99 callgsubr
          endchar
        </CharString>
        <CharString name="divide">
          52 91 124 113 77 115 124 hstemhm
          78 510 -315 122 hintmask 01010000
          78 328 rmoveto
          510 77 -510 hlineto
          hintmask 11101000
          317 -252 rmoveto
          -63 callgsubr
          429 vmoveto
          174 callsubr
        </CharString>
        <CharString name="divide.ss01">
          52 97 113 116 80 117 112 hstemhm
          78 510 -310 110 hintmask 11110000
          78 326 rmoveto
          510 80 -510 hlineto
          hintmask 11101000
          200 -309 rmoveto
          110 113 -110 hlineto
          313 vmoveto
          110 112 -110 hlineto
          endchar
        </CharString>
        <CharString name="dollar">
          17 -6 74 -53 -21 533 261 -158 75 hstemhm
          60 93 -92 97 109 54 100 97 -82 91 hintmask 0101101010000000
          267 -87 rmoveto
          54 81 hlineto
          136 9 70 95 93 vvcurveto
          139 -107 29 -99 25 vhcurveto
          244 vlineto
          hintmask 0110101100000000
          61 -13 33 -45 6 -43 rrcurveto
          97 hlineto
          hintmask 0101101100000000
          -10 101 -73 67 -114 10 rrcurveto
          hintmask 0110101010000000
          83 -54 vlineto
          hintmask 0101101010000000
          -83 vlineto
          -125 -8 -82 -77 -108 vvcurveto
          -138 107 -29 100 -26 vhcurveto
          -250 vlineto
          hintmask 0101011010000000
          -71 11 -33 49 -5 52 rrcurveto
          -97 hlineto
          2 -106 84 -70 120 -11 rrcurveto
          169 192 rmoveto
          hintmask 1001101010000000
          -60 -41 -50 -74 -8 vhcurveto
          236 vlineto
          hintmask 0101011010000000
          64 -19 51 -28 -71 vvcurveto
          hintmask 0101101010000000
          -283 331 rmoveto
          71 47 36 67 6 vhcurveto
          -231 vlineto
          -64 20 -50 27 71 vvcurveto
          endchar
        </CharString>
        <CharString name="dotaccent">
          -462 622 105 hstem
          19 105 vstem
          72 622 -59 callgsubr
        </CharString>
        <CharString name="dotlessi">
          200 callgsubr
          hstem
          77 91 vstem
          526 callgsubr
          endchar
        </CharString>
        <CharString name="dottedcircle">
          46 -9 84 -70 84 -52 84 -40 84 -32 84 -23 84 -25 84 -22 84 -32 84 -37 84 -57 84 -69 84 hstemhm
          50 86 -71 86 -56 86 -40 86 -34 86 -21 86 -27 86 -24 86 -33 86 -47 86 -52 86 -76 86 hintmask 000100001000001000000100
          557 409 -62 callsubr
          -376 -286 -62 callsubr
          hintmask 010001000000100010000000
          98 -76 -62 callsubr
          -143 189 -62 callsubr
          hintmask 100000010000010000100000
          267 -203 -62 callsubr
          -252 324 -62 callsubr
          hintmask 001000000100000100001000
          367 -278 -62 callsubr
          -291 377 -62 callsubr
          hintmask 000010000001000001000010
          364 -281 -62 callsubr
          -247 323 -62 callsubr
          hintmask 000000100010000000010001
          257 -203 -62 callsubr
          -136 188 -62 callsubr
          endchar
        </CharString>
        <CharString name="doubledanda">
          -112 21 -21 741 -20 hstem
          157 82 128 83 490 callsubr
          128 hmoveto
          -741 83 741 vlineto
          endchar
        </CharString>
        <CharString name="dvA">
          223 21 1 callgsubr
          152 callgsubr
          140 452 callsubr
          hintmask 1100110100110000
          243 448 rmoveto
          -68 39 vlineto
          -71 callsubr
          hintmask 1110010100110000
          409 callgsubr
          hintmask 1110010101001000
          400 callgsubr
          hintmask 1110010101010000
          -215 475 callgsubr
          hintmask 1101001011010000
          -67 callsubr
          hintmask 1100110101010000
          471 callsubr
          endchar
        </CharString>
        <CharString name="dvAA">
          509 21 1 callgsubr
          152 callgsubr
          140 83 211 84 -84 215 hintmask 1100110100111000
          243 448 rmoveto
          -68 39 vlineto
          -71 callsubr
          hintmask 1110010100111000
          283 callgsubr
          hintmask 1110010101010100
          131 70 -509 475 callgsubr
          hintmask 1101001011011000
          -67 callsubr
          hintmask 1100110101011000
          471 callsubr
          endchar
        </CharString>
        <CharString name="dvAI">
          47 19 72 579 70 173 68 509 callsubr
          hintmask 11101100
          344 19 rmoveto
          hintmask 11101010
          142 88 85 144 hvcurveto
          -82 hlineto
          -99 -55 -58 -95 -103 -54 68 112 vhcurveto
          399 vlineto
          hintmask 11110100
          122 callgsubr
          112 70 -117 vlineto
          76 callsubr
          -508 -70 hlineto
          hintmask 11101100
          129 hlineto
          1 -397 rlineto
          -151 76 -103 165 vhcurveto
          endchar
        </CharString>
        <CharString name="dvAU">
          516 21 1 callgsubr
          86 54 97 55 152 callgsubr
          140 83 -72 72 211 84 -84 215 hintmask 111001011101010100000000
          722 hmoveto
          272 callgsubr
          hintmask 111001011101001010000000
          131 70 -138 hlineto
          289 -147 -39 12 -131 -55 callgsubr
          106 23 -5 -90 114 hvcurveto
          hintmask 111001011101010100000000
          -297 475 callgsubr
          hintmask 110100111011010100000000
          -67 callsubr
          hintmask 110011011101010100000000
          471 callsubr
          -39 -68 39 hlineto
          hintmask 110011011100110100000000
          -71 callsubr
          hintmask 111001011100110100000000
          103 callgsubr
          vlineto
          endchar
        </CharString>
        <CharString name="dvAbbreviationsign">
          -112 187 53 218 52 hstem
          81 53 224 55 vstem
          249 510 rmoveto
          -98 -70 -67 -94 -94 70 -68 98 96 68 67 93 96 -68 67 -96 hvcurveto
          -52 vmoveto
          64 45 -46 -65 -63 -45 -44 -64 -67 -48 45 64 64 48 45 67 hvcurveto
          endchar
        </CharString>
        <CharString name="dvAcandra">
          224 21 1 callgsubr
          91 64 152 callgsubr
          -14 73 81 452 callsubr
          -34 72 hintmask 1100110110010101
          243 448 rmoveto
          -68 39 vlineto
          -71 callsubr
          hintmask 1110010110010101
          409 callgsubr
          hintmask 1110010110100010
          400 callgsubr
          hintmask 1110010110100101
          -215 475 callgsubr
          hintmask 1101001101100101
          -67 callsubr
          hintmask 1100110110100101
          471 callsubr
          610 568 rmoveto
          -72 hlineto
          -55 -39 -57 -92 vhcurveto
          hintmask 1110010110001101
          -92 -39 57 55 hvcurveto
          -73 hlineto
          -91 62 -85 142 vhcurveto
          hintmask 1100110110100101
          141 62 85 91 hvcurveto
          endchar
        </CharString>
        <CharString name="dvAnusvara">
          -605 835 112 hstem
          -204 113 vstem
          -91 891 -23 callgsubr
        </CharString>
        <CharString name="dvAnusvara.amI">
          -605 835 112 hstem
          66 113 vstem
          179 891 -23 callgsubr
        </CharString>
        <CharString name="dvAvagraha">
          -29 61 72 468 71 hstem
          134 85 173 85 vstem
          329 61 rmoveto
          98 50 55 69 hvcurveto
          161 -258 82 112 vvcurveto
          50 40 11 45 vhcurveto
          184 71 -203 hlineto
          -83 -68 -33 -88 hvcurveto
          -164 258 -82 -109 vvcurveto
          -36 -27 -27 -56 vhcurveto
          -233 -72 hlineto
          endchar
        </CharString>
        <CharString name="dvB">
          -191 91 59 361 59 100 70 hstem
          70 71 363 67 vstem
          571 332 rmoveto
          113 -77 125 -173 -32 callgsubr
          161 88 111 130 vhcurveto
          -248 179 -95 callgsubr
          250 159 rmoveto
          70 -600 -70 vlineto
          352 38 callsubr
          endchar
        </CharString>
        <CharString name="dvBA">
          84 21 -21 91 62 359 57 101 70 hstemhm
          70 277 callsubr
          hintmask 11111100
          584 hmoveto
          83 callsubr
          -742 -70 531 182 callsubr
          -135 -105 -94 -145 144 callsubr
          hvcurveto
          -196 vlineto
          -178 512 rmoveto
          hintmask 11111010
          -14 callsubr
          hintmask 11111100
          -48 callsubr
          endchar
        </CharString>
        <CharString name="dvBH">
          -95 101 413 callsubr
          223 72 hstemhm
          76 149 callsubr
          hintmask 11110100
          260 172 -73 callgsubr
          198 69 -198 81 vlineto
          149 callgsubr
          vhcurveto
          hintmask 11101100
          -109 -63 -70 -104 -13 2 -15 2 -13 hvcurveto
          65 callgsubr
          19 callsubr
          -94 vlineto
          hintmask 11110100
          -110 -84 -62 -114 -20 callsubr
          hvcurveto
          endchar
        </CharString>
        <CharString name="dvBHA">
          190 386 callsubr
          -63 72 hstemhm
          76 482 callsubr
          hintmask 1111010110000000
          260 172 -73 callgsubr
          164 -385 83 -57 callgsubr
          540 callgsubr
          -216 435 callgsubr
          hintmask 1110101110000000
          -41 callsubr
          hintmask 1111010110000000
          -110 -84 -62 -114 -20 callsubr
          hvcurveto
          endchar
        </CharString>
        <CharString name="dvBH_LA">
          812 69 73 -41 71 99 127 -13 69 15 74 -74 271 -70 70 -63 72 hstemhm
          76 149 callsubr
          141 85 262 413 callgsubr
          65 84 hintmask 0101001010111110
          260 172 -73 callgsubr
          149 vlineto
          -5 -22 -3 -23 -26 vvcurveto
          hintmask 1010010010111110
          -140 82 -105 157 9 11 1 1 14 vhcurveto
          73 vlineto
          -1 -11 -10 -1 -9 hhcurveto
          -103 -55 71 99 90 45 67 90 451 callgsubr
          86 43 -69 -88 -99 -55 -71 -103 -9 -10 1 1 -11 vhcurveto
          -73 vlineto
          -1 13 12 -1 9 hhcurveto
          157 81 105 140 119 -59 82 -90 22 hvcurveto
          hintmask 1010101010111110
          187 callgsubr
          -884 -70 556 -129 vlineto
          -90 -12 -43 -67 -16 -64 rrcurveto
          -2 hlineto
          70 -18 -50 75 -106 hhcurveto
          hintmask 1001000101111110
          -74 -61 -32 -57 -36 hvcurveto
          -178 81 hlineto
          -41 callsubr
          hintmask 0101001010111110
          -110 -84 -62 -114 -20 callsubr
          hvcurveto
          endchar
        </CharString>
        <CharString name="dvBH_NA">
          705 338 callgsubr
          -55 71 197 69 -20 70 166 70 -63 72 hstemhm
          76 149 callsubr
          141 112 callsubr
          141 84 hintmask 1101010101111000
          260 172 -73 callgsubr
          154 vlineto
          -8 -22 -5 -25 -28 vvcurveto
          hintmask 1010110101111000
          -118 88 -75 116 109 84 69 115 471 callgsubr
          vhcurveto
          195 -434 84 83 callsubr
          -753 -70 538 -166 -328 hlineto
          hintmask 1011001011111000
          -59 -52 -17 -33 -38 hvcurveto
          -202 81 hlineto
          -41 callsubr
          hintmask 1101010101111000
          -110 -84 -62 -114 -20 callsubr
          hvcurveto
          hintmask 1010110101111000
          217 2 -103 callsubr
          endchar
        </CharString>
        <CharString name="dvBH_R">
          -95 121 70 198 68 220 72 hstemhm
          76 78 -57 82 186 76 hintmask 11110100
          136 callgsubr
          181 137 rmoveto
          61 199 68 -199 78 vlineto
          126 -49 88 -123 vhcurveto
          hintmask 11101100
          -109 -63 -70 -102 -13 2 -15 2 -13 hvcurveto
          81 hlineto
          -2 14 -1 11 12 vvcurveto
          65 37 39 54 67 28 -50 -79 vhcurveto
          -91 -95 vlineto
          hintmask 11110100
          -110 -84 -59 -109 321 callsubr
          -77 -402 rmoveto
          276 278 rlineto
          79 vlineto
          -369 -357 rlineto
          endchar
        </CharString>
        <CharString name="dvBH_RA">
          190 21 -21 121 70 198 68 213 507 callsubr
          189 79 -79 212 -209 76 hintmask 1111010110000000
          136 callgsubr
          181 137 rmoveto
          61 189 -115 vlineto
          -359 -348 rlineto
          93 hlineto
          hintmask 1111010100100000
          269 271 rlineto
          -197 vlineto
          hintmask 1111010110000000
          76 670 hlineto
          540 callgsubr
          -212 -283 -189 78 hlineto
          hintmask 1110101110000000
          173 callsubr
          -91 -95 vlineto
          hintmask 1111010110000000
          -110 -84 -59 -109 321 callsubr
          endchar
        </CharString>
        <CharString name="dvBH_R_YA">
          636 245 callsubr
          -61 70 198 65 216 507 callsubr
          131 239 callgsubr
          hintmask 1011101011110000
          136 callgsubr
          hintmask 1101101011110000
          593 -9 -19 callgsubr
          hintmask 1011101011110000
          -412 146 rmoveto
          61 131 vlineto
          -51 10 -49 20 -42 vhcurveto
          -331 -321 rlineto
          93 hlineto
          hintmask 1101101011110000
          271 269 rlineto
          -53 45 68 -30 88 -68 callsubr
          132 70 -703 -70 204 -69 vlineto
          -116 -66 -31 -96 vhcurveto
          -165 81 hlineto
          hintmask 1101010111110000
          173 callsubr
          -94 -95 vlineto
          hintmask 1011101011110000
          -110 -84 -58 -107 321 callsubr
          endchar
        </CharString>
        <CharString name="dvBH_VA">
          581 513 callgsubr
          107 70 -63 72 hstemhm
          76 482 callgsubr
          hintmask 1011110101110000
          260 172 -73 callgsubr
          145 431 callgsubr
          hintmask 1101110101110000
          13 callgsubr
          hintmask 1101101011110000
          -41 callsubr
          hintmask 1011110101110000
          -110 -84 -62 -114 -20 callsubr
          hvcurveto
          hintmask 1101110101110000
          75 callsubr
        </CharString>
        <CharString name="dvBH_YA">
          636 338 callgsubr
          -60 70 203 69 216 70 -63 72 hstemhm
          76 228 callgsubr
          hintmask 1101101011110000
          260 172 -73 callgsubr
          130 vlineto
          hintmask 1011101011110000
          -17 callgsubr
          hintmask 1011010111110000
          -41 callsubr
          hintmask 1101101011110000
          -110 -84 -62 -114 -20 callsubr
          hvcurveto
          hintmask 1011101011110000
          411 -126 -19 callgsubr
          endchar
        </CharString>
        <CharString name="dvB_BA">
          519 476 callsubr
          -59 62 358 59 -58 57 101 70 hstemhm
          70 71 363 74 360 80 -76 76 hintmask 1101011110000000
          88 callgsubr
          695 -511 rmoveto
          131 callgsubr
          -1177 -70 965 -207 vlineto
          hintmask 1100111110000000
          58 -33 -65 48 -95 hhcurveto
          -90 -77 -42 -71 -41 hvcurveto
          hintmask 1101011110000000
          65 -37 -71 49 -108 hhcurveto
          -32 callgsubr
          103 73 46 67 39 hvcurveto
          hintmask 1011011110000000
          -71 42 78 -42 90 hhcurveto
          94 66 45 60 31 hvcurveto
          -196 vlineto
          hintmask 1101011110000000
          -613 150 -95 callsubr
          hintmask 1010111101000000
          438 3 rmoveto
          -100 -85 65 112 43 12 423 callsubr
          -27 -30 -40 -18 -53 hhcurveto
          -2 359 rmoveto
          121 60 127 callsubr
          -274 240 rlineto
          28 32 44 16 48 hhcurveto
          endchar
        </CharString>
        <CharString name="dvB_BHA">
          614 476 callsubr
          -49 413 callsubr
          57 389 callsubr
          74 209 79 164 84 -84 215 hintmask 1011110111100000
          684 410 callsubr
          -37 -49 -66 vhcurveto
          182 136 rmoveto
          77 164 498 callsubr
          hintmask 1101110111010000
          -2 callsubr
          hintmask 1101110111100000
          -215 435 callgsubr
          hintmask 1101101111100000
          126 -49 88 -124 vhcurveto
          hintmask 1101110111100000
          -22 -18 -3 -6 -17 hvcurveto
          -663 -70 660 1 hlineto
          27 -1 rlineto
          4 11 11 3 13 hhcurveto
          65 27 -51 -78 hvcurveto
          -94 -94 vlineto
          -54 -47 -15 -29 -34 hvcurveto
          86 -28 -76 74 -133 hhcurveto
          -32 callgsubr
          93 69 37 57 41 hvcurveto
          hintmask 1011110111100000
          -52 29 57 -32 74 hhcurveto
          116 356 callgsubr
          hintmask 1101110111100000
          -543 203 -95 callgsubr
          2 -361 -95 callsubr
          endchar
        </CharString>
        <CharString name="dvB_BH_RA">
          636 476 callsubr
          -29 70 198 68 54 389 callsubr
          75 211 77 188 81 -81 213 -208 76 hintmask 1101110111100000
          88 callgsubr
          2 -361 -95 callsubr
          hintmask 1011110111100000
          360 41 rmoveto
          -60 -46 38 60 62 49 38 68 hvcurveto
          94 -66 hlineto
          -83 -37 -49 -68 vhcurveto
          -25 479 rmoveto
          5 11 11 2 15 hhcurveto
          65 28 -50 -79 hvcurveto
          -91 -94 vlineto
          -56 -48 -15 -29 -35 hvcurveto
          85 -29 -75 72 -132 hhcurveto
          -149 -102 -97 -143 hvcurveto
          hintmask 1101110111100000
          -143 105 -96 147 98 70 41 61 40 vhcurveto
          hintmask 1011110111100000
          -45 32 55 -27 70 hhcurveto
          112 68 78 129 hvcurveto
          61 188 -115 vlineto
          -359 -348 rlineto
          94 hlineto
          hintmask 1011110111001000
          270 272 rlineto
          -198 vlineto
          hintmask 1101110111100000
          76 670 hlineto
          hintmask 1101110111010000
          400 callgsubr
          hintmask 1101110111100000
          -213 -283 -188 78 hlineto
          hintmask 1101101111100000
          126 -49 88 -123 vhcurveto
          hintmask 1101110111100000
          -23 -20 -3 -6 -17 hvcurveto
          -662 -70 hlineto
          endchar
        </CharString>
        <CharString name="dvB_DA">
          440 -16 318 -211 59 -51 67 322 72 -49 82 callgsubr
          86 96 callgsubr
          hintmask 0101011101000000
          1070 502 callgsubr
          -1098 -70 hlineto
          hintmask 0101011110000000
          870 -110 -72 hlineto
          -99 -87 -35 -71 -46 hvcurveto
          hintmask 0100111101000000
          65 -37 -71 51 -110 hhcurveto
          -32 callgsubr
          101 73 44 65 39 hvcurveto
          hintmask 0011011101000000
          -65 38 68 -36 84 hhcurveto
          296 callsubr
          hvcurveto
          hintmask 1001011101000000
          279 callsubr
          hintmask 1001011100100000
          -77 hlineto
          hintmask 0011011100100000
          -59 callsubr
          hintmask 0101011110000000
          148 182 hlineto
          -601 38 callsubr
          hintmask 0100111101000000
          -2 361 -95 callgsubr
          endchar
        </CharString>
        <CharString name="dvB_DHA">
          517 476 callsubr
          -52 70 218 68 58 58 100 70 -61 61 -61 70 hstemhm
          70 71 353 73 56 275 callsubr
          hintmask 1101110011011000
          224 callsubr
          hintmask 1101110011010100
          828 520 rmoveto
          70 vlineto
          hintmask 1011110011101000
          12 callgsubr
          -91 -61 45 77 hvcurveto
          hintmask 1101101011011000
          57 37 46 64 64 35 -44 -54 -5 0 -6 -1 -13 vhcurveto
          64 hlineto
          1 11 0 14 8 vvcurveto
          hintmask 1101100111011000
          339 callgsubr
          vhcurveto
          hintmask 1101110011101000
          14 callgsubr
          41 hvcurveto
          hintmask 1011110011011000
          -62 34 75 -31 88 hhcurveto
          104 79 46 76 40 hvcurveto
          -220 -11 callsubr
        </CharString>
        <CharString name="dvB_DH_VA">
          946 476 callsubr
          -54 67 -66 71 218 68 41 68 -51 58 100 70 -61 61 -61 70 hstemhm
          70 71 353 73 56 153 -9 64 533 82 hintmask 1100110100110110
          224 callsubr
          1119 520 rmoveto
          131 70 -628 -70 415 -211 hlineto
          61 -32 -63 43 -93 hhcurveto
          -131 -96 -90 -134 -3 hvcurveto
          hintmask 1001110010111010
          -118 -16 -76 -53 -110 hhcurveto
          288 callsubr
          -6 callsubr
          hintmask 1100110010110110
          -83 callsubr
          hintmask 1100110001110110
          339 callgsubr
          vhcurveto
          hintmask 1100101100111010
          14 callgsubr
          40 hvcurveto
          hintmask 1001110100110110
          -63 35 79 -31 96 hhcurveto
          123 74 52 86 36 hvcurveto
          hintmask 1010110100110110
          161 callsubr
          82 vlineto
          -250 29 callgsubr
        </CharString>
        <CharString name="dvB_JA">
          652 476 callsubr
          -19 399 callgsubr
          12 82 callgsubr
          71 222 82 190 83 hintmask 1101011111000000
          325 150 -95 callsubr
          959 520 rmoveto
          70 -1311 -70 1096 352 callgsubr
          hintmask 1011111111000000
          98 callgsubr
          hintmask 1101011111000000
          316 callgsubr
          hintmask 1011011111000000
          289 callsubr
          95 190 -427 83 -57 callgsubr
          hintmask 1101111111000000
          -829 -159 -95 callgsubr
          endchar
        </CharString>
        <CharString name="dvB_JHA">
          703 244 callsubr
          -56 323 -232 59 109.5 169 callsubr
          166 61 -39 59 -13 -20 133 70 hstemhm
          70 71 370 82 -30 76 194 80 -9 77 -77 299 -83 83 hintmask 010110100110110010000000
          325 150 rmoveto
          -98 -86 66 112 514 callgsubr
          -28 354 callgsubr
          376 173 rmoveto
          hintmask 010110100111010010000000
          -58 -50 22 60 69 65 15 57 hvcurveto
          198 181 207 -347 hlineto
          hintmask 001000100111010010000000
          83 -323 242 callgsubr
          -1361 -70 860 -120 -140 vlineto
          -91 -91 -36 -108 hvcurveto
          -43 vlineto
          -47 -12 -50 -26 -39 vhcurveto
          hintmask 010110010110110010000000
          -275 239 rlineto
          29 33 45 16 49 hhcurveto
          30 26 -5 -8 25 hvcurveto
          hintmask 010110001110110010000000
          59 vlineto
          hintmask 010101010110100100000000
          8 -26 -28 5 -31 hhcurveto
          -32 callgsubr
          140 78 92 117 19 hvcurveto
          32 -25 43 -11 45 -1 rrcurveto
          85 hlineto
          92 48 -42 -67 -52 -35 -46 -83 -93 -50 53 62 -9 hvcurveto
          hintmask 100010100110110010000000
          -71 -248 76 hlineto
          hintmask 010110100110101010000000
          -15 callgsubr
          188 -1 rlineto
          hintmask 001000100110110010000000
          -259 vlineto
          endchar
        </CharString>
        <CharString name="dvB_J_YA">
          1109 476 callsubr
          -38 70 -51 73 191 69 -59 59 47 82 callgsubr
          71 222 82 165 504 callgsubr
          85 hintmask 1010101111111100
          88 callgsubr
          hintmask 1100101111111100
          2 -361 -95 callsubr
          hintmask 1010011111111100
          1001 32 182 callgsubr
          121 322 callgsubr
          -112 -86 -76 -112 vhcurveto
          -62 callgsubr
          -1767 -70 1268 -69 vlineto
          hintmask 1001101111111100
          -102 -66 -35 -113 vhcurveto
          -265 -130 hlineto
          98 callgsubr
          hintmask 1100101111111100
          316 callgsubr
          hintmask 1001101111111100
          289 callsubr
          63 165 vlineto
          hintmask 1010101111111100
          -173 7 95 -110 163 hhcurveto
          106 72 46 60 37 hvcurveto
          -218 85 -76 callgsubr
        </CharString>
        <CharString name="dvB_JxA">
          660 -60 112 -31 -21 91 59 -19 399 callgsubr
          12 82 callgsubr
          71 57 112 53 82 190 83 hintmask 0110101110110000
          1284 -60 callgsubr
          -1311 -70 1096 352 callgsubr
          hintmask 0101111110110000
          98 callgsubr
          hintmask 0110101110110000
          316 callgsubr
          hintmask 0101101110110000
          289 callsubr
          95 190 -427 83 -57 callgsubr
          hintmask 1010111111110000
          -408 331 callgsubr
          -419 155 -95 callsubr
          -2 361 -95 callgsubr
          endchar
        </CharString>
        <CharString name="dvB_LA">
          725 69 73 -51 59 121 104 callgsubr
          -229 82 callgsubr
          76 262 70 115 83 65 85 hintmask 1010100111111000
          1022 69 rmoveto
          156 82 105 140 120 -59 81 -91 22 hvcurveto
          187 callgsubr
          -1383 -70 1054 -129 vlineto
          -89 -13 -42 -66 -17 -64 rrcurveto
          449 callgsubr
          hintmask 0100001111111000
          65 -37 -71 51 -110 hhcurveto
          -32 callgsubr
          97 70 40 60 41 hvcurveto
          hintmask 1000010011111000
          176 callgsubr
          hintmask 0101000011111000
          -15 70 15 vlineto
          hintmask 1000010011111000
          108 44 75 90 86 43 -69 -88 -99 -55 -71 -103 -8 -11 1 1 -10 vhcurveto
          -73 vlineto
          hintmask 1010100111111000
          -1 12 11 -1 11 hhcurveto
          hintmask 0100001111111000
          -697 81 -95 callsubr
          -2 361 -95 callgsubr
          endchar
        </CharString>
        <CharString name="dvB_L_YA">
          1231 402 callsubr
          -51 59 -38 177 callsubr
          -229 82 callgsubr
          76 262 70 255 239 callgsubr
          hintmask 101000000111111110000000
          325 150 -95 callsubr
          hintmask 100100100001111110000000
          1123 32 rmoveto
          -126 554 callsubr
          126 5 70 59 130 vvcurveto
          hintmask 100100000111111110000000
          96 202 -300 vlineto
          hintmask 100100100001111110000000
          -5 callgsubr
          hintmask 100110010011111110000000
          -62 callgsubr
          -1889 -70 1390 -82 vlineto
          -103 -50 -45 -86 -11 vhcurveto
          66 -25 -60 48 -82 hhcurveto
          -113 -50 -74 -71 -18 hvcurveto
          449 callgsubr
          hintmask 101000000111111110000000
          65 -37 -71 51 -110 hhcurveto
          -32 callgsubr
          97 70 40 60 41 hvcurveto
          hintmask 110000001001111110000000
          176 callgsubr
          hintmask 100101000001111110000000
          -15 70 15 vlineto
          hintmask 100100001001111110000000
          110 45 73 93 73 35 -49 -39 467 callgsubr
          170 107 72 47 60 36 vhcurveto
          -219 83 vlineto
          hintmask 100100000111111110000000
          -57 callgsubr
          -1407 -159 -95 callgsubr
          endchar
        </CharString>
        <CharString name="dvB_NA">
          626 476 callsubr
          -33 71 246 70 7 82 callgsubr
          77 186 callsubr
          hintmask 1011011111000000
          581 98 callsubr
          -1285 -70 1070 246 callsubr
          -69 -60 -24 -44 -38 hvcurveto
          hintmask 1100111111000000
          74 -34 -73 60 -120 hhcurveto
          -32 callgsubr
          102 73 44 66 39 hvcurveto
          hintmask 1011011111000000
          -53 36 62 -31 74 hhcurveto
          -56 callsubr
          hintmask 1100111111000000
          -801 38 callsubr
          -2 361 -95 callgsubr
          endchar
        </CharString>
        <CharString name="dvB_R">
          -191 91 59 361 59 100 70 hstemhm
          -27 600 -503 71 363 67 hintmask 11110000
          573 -60 callgsubr
          -600 -70 vlineto
          hintmask 11101100
          598 -338 rmoveto
          113 -77 125 -173 -32 callgsubr
          12 12 1 1 12 vhcurveto
          399 callsubr
          rlineto
          87 hlineto
          195 197 rlineto
          56 45 29 69 75 vvcurveto
          -248 179 -95 callgsubr
          2 -361 -95 callsubr
          endchar
        </CharString>
        <CharString name="dvB_RA">
          83 21 -21 95 58 359 57 101 70 hstemhm
          70 277 callsubr
          hintmask 11111100
          471 152 rmoveto
          13 14 11 14 9 14 rrcurveto
          -194 80 83 callsubr
          -742 -70 531 182 callsubr
          -135 -105 -94 -145 485 callgsubr
          hvcurveto
          -158 -150 rlineto
          91 hlineto
          63 566 rmoveto
          hintmask 11111010
          -14 callsubr
          hintmask 11111100
          -48 callsubr
          endchar
        </CharString>
        <CharString name="dvB_SA">
          636 211 callgsubr
          91 59 199 62 -62 69 93 82 callgsubr
          83 -74 74 182 82 -33 80 154 84 hintmask 1000111110101000
          88 callgsubr
          hintmask 1010111110101000
          2 -361 -95 callsubr
          526 429 rmoveto
          91 201 -252 -262 43 callsubr
          -1295 -70 796 -91 vlineto
          hintmask 1011011101101000
          -102 -57 -66 -114 vhcurveto
          -40 hlineto
          85 -28 -76 74 -133 hhcurveto
          -32 callgsubr
          85 64 31 48 42 hvcurveto
          hintmask 1000111101011000
          -105 12 63 -74 116 hhcurveto
          121 73 77 120 hvcurveto
          16 -80 438 callsubr
          -72 vhcurveto
          hintmask 1000111110101000
          -79 -37 59 81 hvcurveto
          146 465 vlineto
          hintmask 0100111110101000
          -349 -11 callsubr
        </CharString>
        <CharString name="dvB_SHA">
          625 184 callsubr
          91 59 170 71 120 389 callsubr
          85 246 82 -73 293 callgsubr
          hintmask 1000111011101000
          917 197 rmoveto
          hintmask 0100111011101000
          14 -82 -13 vlineto
          hintmask 1000111011101000
          -80 -45 -54 -74 -89 -38 63 83 vhcurveto
          110 90 vlineto
          hintmask 1000110111011000
          516 callsubr
          -125 hvcurveto
          hintmask 1001111011011000
          -23 -20 -3 -6 -19 hvcurveto
          -684 -70 703 hlineto
          4 13 14 2 16 hhcurveto
          76 49 -51 -82 -105 -87 -47 -106 hvcurveto
          -87 hlineto
          94 -23 -77 85 -143 hhcurveto
          -32 callgsubr
          85 65 31 49 42 hvcurveto
          hintmask 1000111011011000
          -110 15 71 -69 118 hhcurveto
          hintmask 1000111011101000
          122 77 78 127 hvcurveto
          hintmask 0011111011011000
          -594 314 -95 callgsubr
          2 -361 -95 callsubr
          800 -150 rmoveto
          -57 callgsubr
          hintmask 1000111011010100
          -2 callsubr
          hintmask 0010111011011000
          221 callsubr
        </CharString>
        <CharString name="dvB_TA">
          517 2 67 22 59 276 72 13 82 callgsubr
          79 351 84 hintmask 01101111
          1150 -60 callgsubr
          -1177 -70 961 396 callsubr
          -96 -81 -26 -55 -51 hvcurveto
          hintmask 01111111
          83 -29 -76 70 -130 hhcurveto
          -32 callgsubr
          82 63 29 46 43 hvcurveto
          hintmask 11101111
          -110 30 94 -54 125 hhcurveto
          37 callsubr
          hintmask 01111111
          -693 38 callsubr
          -2 361 -95 callgsubr
          endchar
        </CharString>
        <CharString name="dvB_VA">
          505 476 callsubr
          -54 67 332 68 -52 82 callgsubr
          83 336 81 hintmask 1011011110000000
          754 163 218 callsubr
          -1163 -70 950 -212 hlineto
          44 callsubr
          -87 -70 -40 -65 -39 hvcurveto
          hintmask 1100111110000000
          64 -38 -70 48 -108 hhcurveto
          -32 callgsubr
          103 73 45 66 39 hvcurveto
          hintmask 1010111110000000
          -67 38 70 -39 88 hhcurveto
          93 64 44 61 33 hvcurveto
          -201 81 120 callgsubr
          vlineto
          -813 -159 -95 callgsubr
          hintmask 1100111110000000
          2 -361 -95 callsubr
          endchar
        </CharString>
        <CharString name="dvB_YA">
          555 476 callsubr
          -38 70 201 59 -59 357 -229 82 callgsubr
          64 -64 78 116 83 201 84 hintmask 1101011100110000
          1197 -60 callgsubr
          -1224 -70 725 -69 vlineto
          -110 -56 -43 -96 -6 vhcurveto
          71 -36 -73 57 -116 hhcurveto
          -32 callgsubr
          111 77 53 76 36 hvcurveto
          hintmask 1011011100110000
          -68 44 75 -40 102 322 callsubr
          vlineto
          hintmask 1101011100110000
          -741 38 callsubr
          hintmask 1011011101110000
          458 32 rmoveto
          -125 -67 74 113 -9 hvcurveto
          hintmask 1100100110110000
          362 callgsubr
          hintmask 1101011100110000
          83 63 callgsubr
          hintmask 1011011101110000
          -5 callgsubr
          hintmask 1101011101110000
          -460 329 -95 callgsubr
          endchar
        </CharString>
        <CharString name="dvC">
          -150 99 71 291 66 86 callsubr
          325 71 hintmask 11110100
          413 461 rmoveto
          66 -363 -66 vlineto
          hintmask 11101100
          168 callgsubr
          100 -70 127 153 99 109 142 -4 vhcurveto
          -71 hlineto
          80 callgsubr
          239 209 rmoveto
          70 -644 -70 vlineto
          endchar
        </CharString>
        <CharString name="dvCA">
          130 21 -21 100 70 46 callgsubr
          -127 95 -73 117 85 70 41 63 37 vhcurveto
          -204 -11 callsubr
        </CharString>
        <CharString name="dvCH">
          212 27 72 280 69 40 62 120 126 callgsubr
          216 75 hintmask 1111011110000000
          68 callsubr
          hintmask 1111101110000000
          -77 -14 -62 -55 -96 vvcurveto
          -144 133 -75 192 223 150 119 196 139 -84 69 -101 -88 -88 -46 -124 -9 callsubr
          84 57 32 49 55 55 -48 -96 128 callsubr
          -149 -92 53 102 557 callgsubr
          hintmask 1111011110000000
          -94 -38 43 77 hvcurveto
          102 vlineto
          endchar
        </CharString>
        <CharString name="dvCHA">
          212 27 72 280 69 40 252 -193 -20 143 70 hstemhm
          73 487 callgsubr
          hintmask 1101101111100000
          68 callsubr
          hintmask 1101110111100000
          87 callgsubr
          hintmask 1101101111100000
          29 callsubr
          -9 callsubr
          hintmask 1110001111100000
          92 callgsubr
          hintmask 1101110111100000
          128 callsubr
          vhcurveto
          endchar
        </CharString>
        <CharString name="dvCH_R">
          212 -122 221 -74 74 -70 70 280 69 40 62 120 126 callgsubr
          216 75 hintmask 0011110111100000
          68 callsubr
          hintmask 0011111011100000
          228 callsubr
          hintmask 1001110111100000
          -140 -151 rlineto
          87 hlineto
          hintmask 0101110111100000
          201 callgsubr
          hintmask 1001110111100000
          311 callsubr
          139 -84 69 -101 -88 -88 -46 -124 -9 callsubr
          92 callgsubr
          hintmask 0011111011100000
          128 callsubr
          -149 -92 53 102 557 callgsubr
          hintmask 0011110111100000
          -94 -38 43 77 hvcurveto
          102 vlineto
          endchar
        </CharString>
        <CharString name="dvCH_RA">
          212 -122 221 -74 74 -70 70 280 69 40 252 -193 -20 143 70 hstemhm
          73 487 callgsubr
          hintmask 0011011011111000
          68 callsubr
          hintmask 0011011101111000
          228 callsubr
          hintmask 1001011011111000
          -140 -151 rlineto
          87 hlineto
          hintmask 0101011011111000
          201 callgsubr
          hintmask 1001011011111000
          311 callsubr
          195 callsubr
          hintmask 0011011101111000
          -226 -571 rmoveto
          50 callgsubr
          hintmask 0011011011111000
          29 callsubr
          -9 callsubr
          hintmask 0011100011111000
          92 callgsubr
          hintmask 0011011101111000
          128 callsubr
          vhcurveto
          endchar
        </CharString>
        <CharString name="dvCH_R_YA">
          760 -122 862 -719 -21 25 74 -70 70 151 callsubr
          hintmask 010110100111011111000000
          399 99 rmoveto
          50 callgsubr
          hintmask 010010100110111111000000
          -94 -38 43 77 hvcurveto
          102 714 -71 vlineto
          hintmask 010010010110111111000000
          -101 -55 -36 -96 -4 vhcurveto
          hintmask 010010100110111111000000
          493 callgsubr
          hintmask 010011000000111111000000
          -9 callsubr
          hintmask 010010100110111111000000
          92 callgsubr
          hintmask 010110100111011111000000
          128 callsubr
          vhcurveto
          hintmask 010010001000111111000000
          219 callgsubr
          hintmask 010010100110111111000000
          83 63 callgsubr
          hintmask 010010001000111111000000
          -112 -89 -76 -109 vhcurveto
          hintmask 010010100110111111000000
          -62 callgsubr
          -1418 51 callgsubr
          hintmask 010110100111011111000000
          228 callsubr
          hintmask 100000000000111111000000
          -140 -151 rlineto
          87 hlineto
          hintmask 001010100110111111000000
          201 callgsubr
          hintmask 100000000000111111000000
          95 callsubr
          -147 158 122 24 89 67 38 101 rlinecurve
          hintmask 010010100110111111000000
          336 callgsubr
        </CharString>
</ttFont>
